<svg id="图层_1" data-name="图层 1" xmlns="http://www.w3.org/2000/svg" viewBox="0 0 579.32 1931.3"><defs><style>.cls-1{fill:#000101;}.cls-2{fill:#d299b1;}.cls-3{fill:#a67673;}.cls-4{fill:#e46f6f;}.cls-5{fill:#ccc;}.cls-6{fill:#fff;}.cls-7{fill:#f69d9e;}.cls-8{fill:#f99e3c;}.cls-9{fill:#e15f75;}.cls-10{fill:#ef392a;}</style></defs><title>body</title><path class="cls-1" d="M1150.88,1071.53c-.67-10.44-2.51-21.43-2.9-31.63-.37-9.33,2.5-18.79,3-28.18,1.35-24,4.26-49.49,4-73.39-.57-48.45-2.33-96.79-3.62-145.3-1.19-44.75-11.18-88.34-10.2-133.56.48-22.49-2.91-42.83-11.4-63.62-3.27-8-9.41-17.44-10.1-26.43-.88-11.32,3.19-24.15,3-36-.57-42.09-9.1-78.7-45.64-101.65-38.19-24-85-24.46-123.94-47.56-19.36-11.49-21.66-19.54-21.78-41.89-.05-9.77-1.82-19.32.68-29,3-11.4,10.43-19.28,16.45-28.86,8-12.71,16.71-34.83,12.81-50.12-2.33-9.17-4.56-11.94-5.15-22.37-.66-11.69-7-26.55-6.09-37.95s8.72-13.55,1.41-25.58c-5.33-8.78-8.21-16.88-13-26.44-3.57-7.18-8.19-16.43-15.57-19.77-3-1.37-5.74.53-8.35-.5-5.54-2.17-9.83-6.57-15.65-8.72-20.34-7.52-44.12-5.25-63.9,1.57-10.23,3.52-22.4,4.71-31.74,10.53-2.14,1.34-7.15,3-7.13,6.52,0,6.57,7.38,2.68,7.87,5.77.41,2.64-17.65,10.95-20.26,15.33-4.4,7.41-1.72,16.1-2.72,24.18-2.63,21.41,0,41.87-4.18,62.93-1.42,7.22-5.62,13.21-6.2,20.46-.83,10.51,5.1,25.51,9.19,34.92,3.6,8.29,9.36,12.14,14.16,19.46,6.94,10.59,8,23.76,8.15,36.23.27,18.37,2.52,36.54-13.38,48.55-18.2,13.73-45.06,22.55-66.47,28-40.81,10.38-86.58,22.27-104,67.25-7,18-12.08,43.7-10,63,1.06,10,5.92,22.39,4.33,32.47C611,580.68,604.11,592.3,600.37,602,582.5,648.52,595,702.56,583.81,750.88c-5.84,25.2-5.21,50.54-5.94,76.34-.84,29.92-3.31,59.59-1.61,89.55C577.77,943.34,580,969.34,580,996c.06,27.47,4.58,55.08,1.57,82.45-2.91,26.45-5.13,54.51,1.56,80.78,3.11,12.19,12,23.06,18.37,33.55,5.2,8.55,12.27,28.89,23.85,29,26.81.34,4.85-38.22.75-47.75-4.42-10.3-8.46-23.76-9.17-35-.83-13.14,5.15-24.84,7.32-37.55,5.07,13.26,7.57,50.07,24.88,51.17,23.85,1.51,6.35-43.06,4-54.79-2.44-12-.4-24.06-2.46-35.93-2-11.59-9.08-18.25-14-28.12-10.21-20.6-1.35-44.31,4.69-64.68,14.62-49.23,29.67-99.87,33.49-151.4,1.83-24.64-6-52.91.49-76.58q9.36-34.2,17.87-68.89c6.85,17.49,13.54,35.05,20.2,52.62,7.77,20.47,7.93,38.43,5.94,60.44-1.68,18.46-6.09,36.32-7.52,54.81-1.66,21.39,3.54,42.3,1.68,63.49-1.73,19.64-6.74,37.08-4.37,57.1,2.41,20.27.36,37.19-2.69,57.23-5.58,36.7-9,74.2-16,111-2,10.15,1.74,16.52,1.69,26.1,0,8.07-3.72,16.82-5.18,24.87-4.06,22.33-4.43,45.13-6.16,67.73-1.53,20,1.82,40.48,1.9,60.76.07,20.89,2.51,40.82,9.4,60.5,13.42,38.38,16.63,80.62,16.34,121.42s-11.15,81.82-15,122.47c-3.61,38.11,5.25,79.51,9.8,117.36,2.54,21.1,3.63,42.21,4.46,63.46.74,19,4,37.86,5.24,57.08,2.34,37.9,11,84.72-17.25,113.9-10.26,10.6-30.77,15.66-36.69,30.28-8.74,21.59,20.66,25.07,33.92,23.79,16.49-1.61,33.93,3.37,50-.56,13.09-3.19,30.91-.54,40.78-12.54,11-13.35,4.34-38.52,3.36-54.52-1.18-19.31,2.12-40.68-2.35-59.4-9.32-39,5.39-78.89,10.89-118.22,2.8-20,4.4-37.33,11.57-56.08,7.55-19.73,10.26-40.28,10.79-61.45,1-40.63-7.4-77.82-11.65-117.92-2-19.21,6.26-37.6,7.87-56.82,1.82-21.65,5.59-42.87,8.29-64.44,2.45-19.6,2.86-39.15,7-58.5,4.73-22,11-43.6,15.9-65.55,9.53-42.52,6.6-85.66,10.32-128.92.74-8.59-1.33-44.25,12.44-41,13.17,3.14,9.24,43,9.34,54,.38,41.84,2.08,85.4,11.86,126.11,4.85,20.21,11,40,14.8,60.55,4,21.87,4.08,44.07,7.4,66,3.1,20.47,5.39,39.89,7.51,60.48a160.82,160.82,0,0,0,5.81,28.42c3.18,11,1.63,15.92-.75,27.35a494,494,0,0,0-8.89,130.33c1.26,19.36,9,35.1,14.22,53.22,6.1,21.09,6.92,43.78,10.11,65.43,2.88,19.5,7.72,38.77,10,58.34,2.39,20.4-4,38.51-5.74,58.54-1.57,18,5,34.24.65,51.92-4.26,17.24-8,38.31,9.91,47.15,13.93,6.87,33.61,9.48,49,8.71,7.85-.39,15.34-3.66,23.1-3.5,10.92.22,18.18,3.38,29.56,1.28,11.79-2.17,21.44-7,15.46-22.26-5.57-14.26-27.34-20.19-37.27-31.14-7.53-8.31-18-19.89-17.46-32,.71-15.85-2-32.19-1.34-48.71,1.7-42.25,6.12-85,9.55-126.67,3.35-40.6,12.78-79.9,12.57-120.9-.21-42.38-11.13-83-12.18-125.11-1.08-43.56-2.54-88,11.84-129.28,14.06-40.37,12.93-86.09,13.39-128.46.21-20.31-.09-41-2.84-61.15-1.14-8.31-3.58-16.18-5.15-24.36-2-10.31.26-17,.64-26.71.3-7.82-3.2-17.51-4.21-25.45-1-8.31-.69-16.59-1.49-24.88-1.92-19.62-5.25-40.8-9.11-60.14-3.8-19-5.15-36.8-5.69-56.17-.27-10.21,2.47-18.08,2.86-28.11.44-11.48-3.32-22.61-4.82-33.87-2.83-21.19,1.17-41.34,1.32-62.44.15-21.4-6.25-41.71-8.69-62.8-1.89-16.29-2.51-35.76,2-51.6,5.9-20.86,15.92-41.44,23.69-61.62,7,26.34,16.35,53.19,17.66,80.67,1.25,26.4-1.51,52.86,1.57,79.21,6.13,52.41,22.12,102.76,35.71,153.39,2.74,10.22,6.41,21.68,6.07,32.42-.34,10.93-6.49,17.15-11.88,25.76-9.09,14.54-5.58,32-9.14,48.44-2.55,11.82-21.45,56.45-.47,60.68,18.42,3.71,23.18-35.64,26.43-47.15,20.21,27.13,3.06,60.81-10.07,85.71-4.6,8.73-4.21,10.33.34,18.8,2.18,4.06,6.37,13.35,11.76,13.25,6.87-.12,20.52-25.85,24.42-31.74,25.25-38.13,22.21-77.53,19.4-121.3Z" transform="translate(-575.68 -88.36)"/><path class="cls-2" d="M942.41,944.48a9.88,9.88,0,0,0-6.85,2.52c-.48-.38.07-.7-.46-1,.4-1.08,1.67-2.24,1.67-3.45V941c0-3.61-3-6.81-5.8-8.5.2-.61-.16-1.23-.06-1.88a9.25,9.25,0,0,0,4,.87,5.37,5.37,0,0,0,1.6-.24c1.06,3.57,5.26,6.48,7.77,6.48,15,0,15-19.56,0-19.56,0,0,.25,0,.08,0-.49-3.53-2-6.82-5.25-8.45,8.92-4.52,7.49-21.74-4.61-21.74s-13.61,17.22-4.69,21.74a10.89,10.89,0,0,0-5.54,8.74,9.89,9.89,0,0,0-3.7-1.08,10.1,10.1,0,0,0-2.1-4.72,14.5,14.5,0,0,0-.71-1.6,5.3,5.3,0,0,0-.46-.76,10.1,10.1,0,0,0-1.62-2.34,9.1,9.1,0,0,0-6.57-2.86,8.74,8.74,0,0,0-1,.07,13.35,13.35,0,0,0-1.22-3.44,11.11,11.11,0,0,0-3.8-4,10.27,10.27,0,0,0-4.7-1.54,8,8,0,0,0-2.37-2c-1.37-.75-2.69-1.62-4.07-2.35a18.45,18.45,0,0,0-8.35-2.25c-5.07-.15-9.29,4.57-9.29,9.79a9.67,9.67,0,0,0,8.92,9.75c1.15.63,2.26,1.33,3.42,2a5.71,5.71,0,0,1,5,2.37,9.57,9.57,0,0,0,.82,1,9.06,9.06,0,0,0,6.56,2.87,7.71,7.71,0,0,0,1.07-.08,10.49,10.49,0,0,0,1.12,3.08,5.3,5.3,0,0,0,.46.76,9.75,9.75,0,0,0,.57,1,9.37,9.37,0,0,0,.25,1.17,8.66,8.66,0,0,0-3.87,4.4,9.44,9.44,0,0,0-7.34-3.8,9.09,9.09,0,0,0-6.56,2.86,9.3,9.3,0,0,0-1.27,1.72,9.79,9.79,0,0,0-9.19-5.67,10.27,10.27,0,0,0-5.33,1.39,9.72,9.72,0,0,0-8.6-4.65,9.94,9.94,0,0,0-6.44,2.17,9.73,9.73,0,0,0-9-5.43c-5.59,0-8.93,3.68-10,8.08a10.38,10.38,0,0,0-16.2,3.07,9.74,9.74,0,0,0-7.82-3.54c-5.83,0-9.21,4-10.16,8.64a11.91,11.91,0,0,0-1.49-1.6,11.18,11.18,0,0,0-8.47-18h-1A11.05,11.05,0,0,0,778.86,924c0,3.78,3,7.06,5.76,9.15-1.25,1.86-.8,4-.8,6.41v1.08c0,3.4.29,6.49,2.59,8.59l-1,0c-2.27,0-5.46,1-6.92,2.89-1.72,2.24-1.55,1.74-2.59,4.38-.12.29-.72.81-.79,1.32a21.9,21.9,0,0,0-3.82-.58c-10,0-10,19.56,0,19.56,7.53,0,8-3,9-6.62a9.31,9.31,0,0,0,12.87-5.54,10.42,10.42,0,0,0,1.19-6.55,9.94,9.94,0,0,0,2.35,1.1,10.61,10.61,0,0,0,8,3.75,10.2,10.2,0,0,0,3.61-.68c.73,5,4.17,9.38,10.33,9.38a9.76,9.76,0,0,0,7.84-3.55,9.75,9.75,0,0,0,9.18,5.72,10.05,10.05,0,0,0,6.06-1.88,10.24,10.24,0,0,0,18.22,1.23,9.91,9.91,0,0,0,9.78,7.17,9.71,9.71,0,0,0,8.63-4.71,9.82,9.82,0,0,0,6.84,2.54,9.71,9.71,0,0,0,7.55-3.25,10.33,10.33,0,0,0,8.45,4.33,11.83,11.83,0,0,0,6-1.72,11.52,11.52,0,0,0,3.7-3.6,9,9,0,0,0,.77,1,12.44,12.44,0,0,0-2.87,8.75,9.87,9.87,0,0,0-8.61,7,10.07,10.07,0,0,0-5.73-1.65,11,11,0,0,0-1.3.07,10.3,10.3,0,0,0-4.89-1.16,9.7,9.7,0,0,0-8.6,4.65,10.27,10.27,0,0,0-5.33-1.39,10.06,10.06,0,0,0-5.85,1.73,9.7,9.7,0,0,0-8.08-3.9,10,10,0,0,0-6,1.88,9.81,9.81,0,0,0-9.43-6.23c-2.34,0-4.28,1.46-5.84,2.54-2-2.38-4.89-3.1-8.09-3.1h-1c-1.73,0-3.37-.35-4.83.43-1.42-3.75-4.62-7.08-9.62-7.08a9.78,9.78,0,0,0-6.89,2.36,10.37,10.37,0,0,0-5.49-1.57,9.06,9.06,0,0,0-2.79.38c-1.56-3.35-6.47-5.92-9-5.92-12.53,0-12.53,22.83,0,22.83a21,21,0,0,0,2.8-.44A10.25,10.25,0,0,0,796,998a11.2,11.2,0,0,0,2.67,5.05,10.46,10.46,0,0,0,3.27,2.35,9.69,9.69,0,0,0,9,5.34l.37,0c-.24,5.89,3.23,12,10.45,12a10.26,10.26,0,0,0,5.44-1.45c1.13,4.35,4.47,8,10,8a9.78,9.78,0,0,0,7.85-3.55,9.75,9.75,0,0,0,9.18,5.72,10.12,10.12,0,0,0,5.43-1.46,11.45,11.45,0,0,0,2.9,5.73l2.07,2.17a11.07,11.07,0,0,0,15.68.08c1.72,2.56,3.85,4.35,8.86,4.35,15,0,15-22.82,0-22.82-2.5,0-6.23,1.27-8,3.22a13.55,13.55,0,0,0-1-1l-2.17-2.17a10.62,10.62,0,0,0-13.43-1.61,11.75,11.75,0,0,0-2.82-6.15,9.76,9.76,0,0,0,4.51-1.65,10.34,10.34,0,0,0,16.71-.75,10.34,10.34,0,0,0,5.31,1.38,11,11,0,0,0,1.3-.07,10.3,10.3,0,0,0,4.89,1.16,9.9,9.9,0,0,0,9.75-7.09,10.07,10.07,0,0,0,5.73,1.65c7.21,0,10.68-6.11,10.42-12,6.21-.59,9.31-6,9.31-11.35a11,11,0,0,0,3.48.54c9.06,0,12.24-9.57,9.56-16.31C956.38,967,956.29,944.48,942.41,944.48Zm-81.54,18A10.38,10.38,0,0,0,845,957.23a9.81,9.81,0,0,0-9.43-6.23,9.7,9.7,0,0,0-7.81,3.54,9.79,9.79,0,0,0-9.21-5.71,11.16,11.16,0,0,0-3.1.43,11.63,11.63,0,0,0-.54-3.4,9.79,9.79,0,0,0,5.08-4.93,9.78,9.78,0,0,0,7.85,3.55c5.6,0,9-3.67,10.06-8.07a9.83,9.83,0,0,0,7,2.64,10,10,0,0,0,6.44-2.17,9.9,9.9,0,0,0,4.36,4.37c-1,4.34.27,9.53,3.89,11.7a9.67,9.67,0,0,0,5.79,5.43A9.69,9.69,0,0,0,860.87,962.51Zm49.86-2.73a10.87,10.87,0,0,0-.9-1.09,10.45,10.45,0,0,0-15.32,0,11.17,11.17,0,0,0-.78.92,1.66,1.66,0,0,0-.13.14,9.66,9.66,0,0,0-7.83-4.37,17.31,17.31,0,0,0,.15-2.21,9.88,9.88,0,0,0-6-9.14,9.55,9.55,0,0,0,2.14-1.86,9.42,9.42,0,0,0,1.21,1.61,9,9,0,0,0,13.13,0,15.66,15.66,0,0,0,3.38-5.55,8.92,8.92,0,0,0,13.47.86,12.74,12.74,0,0,0,3.25.91c0,.31.27.63.27,1v1.62a9.68,9.68,0,0,0,4.23,8.36,7.67,7.67,0,0,0-1.17,4.45l-.51,0A9.84,9.84,0,0,0,910.73,959.78Z" transform="translate(-575.68 -88.36)"/><path class="cls-3" d="M948.62,941a10.27,10.27,0,0,0-7.1,2.6c-.49-.38-2.92-.72-3.47-1,.41-1.12-1.28-2.32-1.28-3.57v-1.69c0-3.74-.09-7-3-8.8.21-.63,1.34-1.28,1.44-1.94a13.48,13.48,0,0,0,4.92.9,4,4,0,0,0,1.39-.25c1.1,3.7,7.79,6.71,7.79,6.71,17.55,0,17.55-20.25,0-20.25,0,0,.9,0,.71,0-.5-3.65-1.78-7-5.11-8.74,9.23-4.69,7.91-22.51-4.62-22.51s-14,17.82-4.77,22.51c-3.42,1.73-5.27,5.27-5.71,9a10.38,10.38,0,0,0-3.81-1.12,10.36,10.36,0,0,0-2.16-4.88,16.37,16.37,0,0,0-.73-1.66,7.68,7.68,0,0,0-.47-.78,9.77,9.77,0,0,0-1.69-2.42,9.09,9.09,0,0,0-7.85-2.9,14,14,0,0,0-1.26-3.56,11.59,11.59,0,0,0-3.94-4.14A10.67,10.67,0,0,0,903,891a8.06,8.06,0,0,0-2.46-2.06c-1.42-.78-2.78-1.68-4.21-2.43a19,19,0,0,0-8.65-2.33c-5.25-.17-9.62,4.73-9.62,10.12a10,10,0,0,0,9.24,10.1c1.19.66,2.34,1.38,3.53,2a10.64,10.64,0,0,0,4,1.2,10.07,10.07,0,0,0,1.2,1.24,8.3,8.3,0,0,0,.85,1,9.39,9.39,0,0,0,6.79,3,8.3,8.3,0,0,0,1.11-.09A10.91,10.91,0,0,0,906,916a6,6,0,0,0,.48.79,8.57,8.57,0,0,0,.59,1,9.61,9.61,0,0,0,.25,1.21,9,9,0,0,0-4,4.56,9.79,9.79,0,0,0-7.6-3.94,9.41,9.41,0,0,0-6.8,3,10.12,10.12,0,0,0-1.32,1.78,10.13,10.13,0,0,0-9.51-5.87,10.65,10.65,0,0,0-5.52,1.44,10.06,10.06,0,0,0-8.91-4.82,10.28,10.28,0,0,0-6.66,2.25,10.06,10.06,0,0,0-9.36-5.62c-5.79,0-9.25,3.81-10.39,8.36a10.24,10.24,0,0,0-7.24-2.74,10.13,10.13,0,0,0-9.54,5.93,10,10,0,0,0-8.09-3.68c-6,0-9.54,4.15-10.52,9a11.16,11.16,0,0,0-1.55-1.67,12.41,12.41,0,0,0,2.45-7.42c0-6.44-5.1-11.94-11.21-11.94h-1.07c-6.12,0-11.23,5.5-11.23,11.94,0,3.91,2.83,7.48,5.68,9.65-1.29,1.92-1.12,4.31-1.12,6.8v1.13c0,3.52.59,6.72,3,8.89l-.89,0c-2.36,0-5.59,1-7.11,3-1.77,2.33-1.56,1.81-2.64,4.55-.12.3,1.72.83,1.64,1.37-1-.39-1.49-.61-1.49-.61-17.55,0-17.55,20.26,0,20.26,0,0,5.79-3.09,6.86-6.85a5.34,5.34,0,0,0,3,.94c4.1,0,7.14-2.81,8.51-6.68a10.63,10.63,0,0,0,.93-6.79,8.67,8.67,0,0,0,2.28,1.13,10.8,10.8,0,0,0,8.18,3.9,10.23,10.23,0,0,0,3.7-.71c.76,5.13,4.3,9.71,10.67,9.71a10.06,10.06,0,0,0,8.12-3.67,10.12,10.12,0,0,0,9.51,5.92,10.33,10.33,0,0,0,6.26-1.95,10.61,10.61,0,0,0,18.87,1.28,10.25,10.25,0,0,0,10.12,7.42,10.05,10.05,0,0,0,8.94-4.87,10.19,10.19,0,0,0,7.09,2.62,10.08,10.08,0,0,0,7.82-3.36,10.72,10.72,0,0,0,8.74,4.49,12.18,12.18,0,0,0,6.25-1.79,11.76,11.76,0,0,0,3.82-3.72c.25.35.52.69.8,1a12.86,12.86,0,0,0-3,9.06,10.22,10.22,0,0,0-8.92,7.28,10.48,10.48,0,0,0-5.93-1.71,11.72,11.72,0,0,0-1.35.07,10.7,10.7,0,0,0-5.07-1.2,10.05,10.05,0,0,0-8.9,4.82,10.62,10.62,0,0,0-5.52-1.44,10.5,10.5,0,0,0-6.06,1.79,10,10,0,0,0-8.37-4,10.38,10.38,0,0,0-6.27,2,10.14,10.14,0,0,0-9.75-6.45c-2.42,0-4.43-1.42-6-.3-2.06-2.47-5.07-6.14-8.38-6.14h-1.07c-1.78,0-3.48,2.57-5,3.37-1.47-3.88-4.79-5.85-10-5.85a10.6,10.6,0,0,0-7.14,3.16,10.7,10.7,0,0,0-5.69-1.26,23.59,23.59,0,0,0-4.57.58c-1.61-3.47-5.95-5.94-11-5.94-12.54,0-12.54,23.63,0,23.63a37.49,37.49,0,0,0,4.57-.45c.51,1.11,1.87,2.13,2.72,3a12.27,12.27,0,0,0,3.18,5.24,11.41,11.41,0,0,0,3.59,2.43,10.2,10.2,0,0,0,9.4,5.54l.43,0c-.24,6.1,3.38,12.4,10.86,12.4a10.66,10.66,0,0,0,5.64-1.5c1.17,4.51,4.64,8.26,10.4,8.26a10.12,10.12,0,0,0,8.13-3.68,10.08,10.08,0,0,0,9.5,5.93,10.51,10.51,0,0,0,5.63-1.51,11.8,11.8,0,0,0,3,5.92l2.14,2.25a11.9,11.9,0,0,0,16.6.09c1.77,2.65,7,4.5,9.52,4.5,15,0,15-23.63,0-23.63-2.51,0-6.8,1.32-8.6,3.33-.26-.34-.94-.68-1.25-1l-2.33-2.25a11.08,11.08,0,0,0-14-1.66,12.19,12.19,0,0,0-2.94-6.37,10,10,0,0,0,4.65-1.71,10.7,10.7,0,0,0,17.3-.78,10.6,10.6,0,0,0,5.5,1.44,11.49,11.49,0,0,0,1.34-.08,10.76,10.76,0,0,0,5.07,1.2,10.26,10.26,0,0,0,10.09-7.34,10.43,10.43,0,0,0,5.93,1.71c7.47,0,11.06-6.33,10.8-12.44,6.42-.6,9.63-6.18,9.63-11.75a11.45,11.45,0,0,0,3.62.56c9.37,0,12.66-9.91,9.89-16.89C963.08,964.31,963,941,948.62,941Zm-84.44,18.67a10.25,10.25,0,0,0-10.12-7.42,10.43,10.43,0,0,0-6.27,2,10.67,10.67,0,0,0-17.85-2.78,10.14,10.14,0,0,0-9.54-5.92,11.58,11.58,0,0,0-3.21.45,12.11,12.11,0,0,0-.56-3.52,10.1,10.1,0,0,0,5.26-5.11A10.12,10.12,0,0,0,830,941c5.8,0,9.27-3.81,10.42-8.36a10.16,10.16,0,0,0,7.21,2.73,10.36,10.36,0,0,0,6.67-2.24,10.11,10.11,0,0,0,4.51,4.52c-1.07,4.5.28,9.87,4,12.12a10,10,0,0,0,6,5.62A10.08,10.08,0,0,0,864.18,959.68Zm51.63-2.83a11.41,11.41,0,0,0-.93-1.13,10.83,10.83,0,0,0-15.87,0,12,12,0,0,0-.8,1c-.05,0-.09.1-.14.15a10,10,0,0,0-8.1-4.53,18.74,18.74,0,0,0,.15-2.29,10.24,10.24,0,0,0-6.27-9.47,9.8,9.8,0,0,0,2.23-1.92,9.57,9.57,0,0,0,1.25,1.67,9.36,9.36,0,0,0,13.6,0,16.18,16.18,0,0,0,3.49-5.76,8.64,8.64,0,0,0,7.34,3.67,8.73,8.73,0,0,0,6.62-2.77c1,.46.9.78,2,.94,0,.32-1.13.65-1.13,1V939c0,3.64,3,6.87,5.77,8.65-.81,1.34-.62,3-.51,4.6-.15,0,0,0-.17,0A9.6,9.6,0,0,0,915.81,956.85Z" transform="translate(-575.68 -88.36)"/><path class="cls-4" d="M1002.47,942.21a18.65,18.65,0,0,0,1.7-13.7c-1.24-4.78-4-7.84-7.76-10.63-.28-.22-.62-.39-.92-.6a21.17,21.17,0,0,0,.22-38c1.46-7.15-1.13-15.12-7.71-19.12a16.53,16.53,0,0,0,1.93-1.65,18.66,18.66,0,0,0,0-25.15c-.31-.32-.61-.63-.9-.95a16.46,16.46,0,0,0-23.89,0,17.28,17.28,0,0,0-2.9,4.33,16.15,16.15,0,0,0-16.66-5.11c-6,1.75-10.57,7.15-12,13.37-.09-.06-.15-.13-.25-.19a16.2,16.2,0,0,0-13-1.79,17.09,17.09,0,0,0-10.09,8.17c-.15.26-.25.61-.39.89a16.06,16.06,0,0,0-10.23-.53,17.27,17.27,0,0,0-11.77,13,15.84,15.84,0,0,0-8.06-2.29,16.93,16.93,0,0,0-14.16,8.2,16.92,16.92,0,0,0-8.37-5.67,17.35,17.35,0,0,0-19.1,7.93,16.91,16.91,0,0,0-8.62-6c-5.56-1.61-12.53.38-16.86,4.85a17.08,17.08,0,0,0-9.76-7.7,16.23,16.23,0,0,0-10.28.48c-2.09-6.74-5.27-12.87-11.38-16.56-10.84-6.55-23.62-.35-29.67,10-4.37,7.5-4.79,16.47-3.89,24.95a15.36,15.36,0,0,0-1.93.92c-4.81,3-8.81,9.24-8.36,15.35a36.05,36.05,0,0,0,2.83,11.73c-7.67,1.28-13.63,9.82-13.63,17.68,0,8.55,5.21,14.3,12.12,16.67a19.42,19.42,0,0,0-9.42,16.54,18.76,18.76,0,0,0,10.82,16.95,18.09,18.09,0,0,0-6.62,19.07,17.78,17.78,0,0,0,14.08,13c-6.08,5.13-7.12,15.84-3.37,22.58a15.61,15.61,0,0,0,15.25,8.38,19.32,19.32,0,0,0,1.86,12.49,17.18,17.18,0,0,0,10.09,8.17c4.62,1.34,8.83.38,13-1.79,5.15-2.69,10-5.16,14.23-9.42,6.66-6.68,6.37-18.43,0-25.15a16.18,16.18,0,0,0-7.67-4.52,17.91,17.91,0,0,0-.51-16.55,17.4,17.4,0,0,0-7.9-7.21,20,20,0,0,0,1.5-13.2,16.14,16.14,0,0,0-10-11.44c7.09-4.77,8.75-15.84,4.67-23.16a17.13,17.13,0,0,0-3.67-4.52,18,18,0,0,0,3.71-29.21,17.62,17.62,0,0,0,4.46-5.23,18.18,18.18,0,0,0,2.07-7.19c.43-.14.82-.33,1.23-.5a23.13,23.13,0,0,0,4.22,3.63c6,4,13.8,2.83,19.13-1.65.42,1.27.88,2.53,1.43,3.81,3.79,8.84,15.8,10.89,23.1,6.38a17.72,17.72,0,0,0,7.23-9.15c5.38,7.17,14.25,10.32,22.29,5.36a18.3,18.3,0,0,0,7.1-9c.13.17.22.35.36.51,6.33,7,17.51,6.71,23.88,0a17.55,17.55,0,0,0,3.7-6c.12.11.22.24.33.35,7.09,6.18,16.93,7.32,23.89,0a17.89,17.89,0,0,0,4-7.36,14.45,14.45,0,0,0,5.67,1.18,16.49,16.49,0,0,0,11.93-5.21,17.52,17.52,0,0,0,3.18-4.83,17,17,0,0,0,16.64,1.91,20.89,20.89,0,0,0-4.62,8.44,22,22,0,0,0,2,16.06,19.75,19.75,0,0,0,3.76,4.72,16.82,16.82,0,0,0-7.74,10.47,19.4,19.4,0,0,0,1.95,14,17.64,17.64,0,0,0-1.15,1.67,18.74,18.74,0,0,0-1.7,13.7,15.44,15.44,0,0,0,1,2.73,16.22,16.22,0,0,0-3.88,2.94A18.83,18.83,0,0,0,950.6,977a17,17,0,0,0-6.11,6.27,18.3,18.3,0,0,0-2,11.33,18.77,18.77,0,0,0-13.19,12.93,17.09,17.09,0,0,0,.89,11.64,17,17,0,0,0-10.24,2.18,17.74,17.74,0,0,0-7,8.49,15.79,15.79,0,0,0-15.43,4.89,16.83,16.83,0,0,0-12.28-1.47c-.28.08-.49.22-.75.3a14.19,14.19,0,0,0-7.37-1.77c-10.12.49-20.83,4-26,14.06-4.43,8.63-3.66,18.89,1,27.22,3.51,6.24,10.21,12.84,17.31,13.88,5.65.83,11.42.93,16.36-2.72.32-.24.56-.51.87-.76a15.5,15.5,0,0,0,4.82.85,16.67,16.67,0,0,0,12.8-6.38,15.18,15.18,0,0,0,3.9,3.53,16.25,16.25,0,0,0,13,1.8c5.66-1.64,10.9-7.42,12.29-13.82a14.51,14.51,0,0,0,7.54,2.12,16.53,16.53,0,0,0,11.94-5.21c4.77-5,6.47-14.31,3.21-20.9a17.05,17.05,0,0,0,19.31-3.56c5.35-5.63,5.94-13.23,3.15-19.8a17.74,17.74,0,0,0,12.09-8.55,18,18,0,0,0-.72-18.64,17.18,17.18,0,0,0,4.33-5.07,18.5,18.5,0,0,0-.34-18.22c.19-.1.41-.17.59-.28a17.79,17.79,0,0,0,7.75-10.62,18.77,18.77,0,0,0-1.7-13.71c-.28-.5-.62-.87-.92-1.31A16.63,16.63,0,0,0,1002.47,942.21Z" transform="translate(-575.68 -88.36)"/><path class="cls-5" d="M981.84,756c-20.61-9.44-26.52,8.49-36.38,4.71S932.1,722.5,932.1,722.5c-9.86-.94-22.41,5.67-22.41,5.67C907.9,769.7,942,780.09,924.93,825.4c-5.77,15.35-17.93,7.55-28.68-1.89-8.64-7.58-21.31-3-26-.89a13.78,13.78,0,0,0-2.41,4.63,2.66,2.66,0,0,1-3.31,1.94,2.84,2.84,0,0,1-1.83-3.49,20.26,20.26,0,0,1,4.11-7.49c-2.33-5.09-7.75-11.17-19.89-5.08-25,12.52-19.72,59.47-19.72,59.47a19.23,19.23,0,0,1,9.69,5.22c3.44-5.18,11-6.74,11-6.74s-.5-5.63,2-14.38a12.63,12.63,0,0,1-1.52.12,16.84,16.84,0,0,1-6.16-1.22,2.86,2.86,0,0,1-1.58-3.62,2.64,2.64,0,0,1,3.44-1.66c4.55,1.78,7.12.51,9-.87,2.58-1.92,3.49-5.2,3.49-8.56v-.06c0-.1.6-.21.61-.31s.31-.17.32-.25.2-.19.23-.28.12-.16.15-.24.12-.16.16-.24.1-.17.14-.24l.17-.21.17-.21.19-.17.21-.17a1.48,1.48,0,0,1,.21-.13,2,2,0,0,1,.25-.14l.21-.07.3-.09,0,0h.2c.08,0,.15.4.23.4s0,.43.07.43h.12c.49,0,1-.24,1.36,0,.05,0,.08-.14.12-.11s.17,0,.24.11a1.54,1.54,0,0,1,.26.25s0,0,.06.06a2.32,2.32,0,0,1,.21.38.41.41,0,0,1,.05.09,3.59,3.59,0,0,1,.12.35c0,.07,0,.13,0,.2a.19.19,0,0,1,0,.07,78.67,78.67,0,0,0,5.72,17.22c6.1,9.3,14.65,23.13,38.26,29.21,40.34,10.38,72.6-14.16,88.73-52.87C1005.9,809.49,1002.46,765.45,981.84,756Z" transform="translate(-575.68 -88.36)"/><path class="cls-6" d="M880.44,210c-4.86,2.06-9.51,4-13.64,5.71a90.43,90.43,0,0,1,8.54,3,35.82,35.82,0,0,0,8.13-4.24A30.47,30.47,0,0,1,880.44,210Z" transform="translate(-575.68 -88.36)"/><path class="cls-6" d="M880.64,205.19h0c2.19-.93,4.42-1.88,6.66-2.85,16.4-7.06,35.47-6.38,42.42-5.82,4-2.38,8.08-8.5,7.37-23.75a61.64,61.64,0,0,0-6-23.62c-.65.79-1.32,1.54-2,2.27-2.24,2.45-4.55,5-5.76,9.1a2.08,2.08,0,0,1-2,1.54,2.12,2.12,0,0,1-2-2.84c1.5-5.11,4.28-8.15,6.74-10.84a35.35,35.35,0,0,0,2.8-3.33,58,58,0,0,0-21.82-21.26,38.2,38.2,0,0,0-7.23,10.52,2.08,2.08,0,0,1-1.87,1.24,2,2,0,0,1-.91-.22,2.25,2.25,0,0,1-1-2.93,42.46,42.46,0,0,1,7-10.66,75.12,75.12,0,0,0-7.23-3,2.13,2.13,0,0,1-.41.38,18.11,18.11,0,0,1-10.07,3.25,12.44,12.44,0,0,1-7.56-2.37,2.26,2.26,0,0,1-.47-3.06,2,2,0,0,1,2.9-.5c2.48,1.88,6.36,2,10,.52a103.61,103.61,0,0,0-18.88-3.4l-.41,0c-.87,7.49-6.16,14.06-12.64,18.32,3.28,1.46,7.7,2.44,11.4-.28a2,2,0,0,1,2.9.55,2.26,2.26,0,0,1-.52,3.05,12.83,12.83,0,0,1-7.76,2.48,20.43,20.43,0,0,1-9.9-2.9c-1.89,2.43-1.74,5.52-1.33,9.92.33,3.61.7,7.71-1,11.43a2.08,2.08,0,0,1-1.88,1.25,1.93,1.93,0,0,1-.9-.22,2.23,2.23,0,0,1-1-2.92c1.13-2.49.93-5.47.64-8.62-2.19-1.16-5.17-2.25-7.47-1.19-1.68.78-2.91,2.68-3.67,5.64a2.1,2.1,0,0,1-2,1.63,2,2,0,0,1-.54-.08,2.2,2.2,0,0,1-1.47-2.68c1.09-4.32,3.11-7.19,6-8.53,2.52-1.16,5.48-1.05,8.83.28,0-3.89.78-7.81,4.73-10.88l0,0,.06,0,.14-.08.13-.09c6.61-3.56,12.14-9.48,13-16.28a93.87,93.87,0,0,0-12,.22c-1.63,5.84-6.41,9.52-10.79,12.87-3.63,2.77-7,5.4-9,9a2.06,2.06,0,0,1-1.83,1.14,1.94,1.94,0,0,1-1-.28,2.25,2.25,0,0,1-.82-3c2.36-4.5,6.33-7.54,10.17-10.47,3.63-2.78,6.95-5.32,8.58-8.81a78.17,78.17,0,0,0-28.54,9.61c1.79,6.05-1.08,10.61-4.33,14.45,5.94,3.17,8.49,8.33,7.19,14.73a2,2,0,0,1-2.47,1.69,2.19,2.19,0,0,1-1.6-2.61c1-4.76-1.06-8.17-6.11-10.42-3.59,4.07-5.56,7.06-4.26,11.13a2.23,2.23,0,0,1-1.31,2.78,2,2,0,0,1-.67.11,2.08,2.08,0,0,1-2-1.49c-2.32-7.26,2.19-12.25,6.17-16.66,3.84-4.26,6.35-7.37,5.63-11.42a72.64,72.64,0,0,0-24.27,26.34,25.45,25.45,0,0,1,9.8,8.23,2.27,2.27,0,0,1-.39,3.08,2,2,0,0,1-2.92-.42,21.1,21.1,0,0,0-8.35-7A42.26,42.26,0,0,0,789,165c-1.64,8.94-.87,17.37,3.91,23.53a11.88,11.88,0,0,0,2.4-4.56,2.08,2.08,0,0,1,2.56-1.55,2.21,2.21,0,0,1,1.46,2.69,16.26,16.26,0,0,1-3.44,6.51,28.62,28.62,0,0,0,13,5.8c-1.31-3.25-1.7-8.42,1.87-16.2.94-2.06,1.84-4.88.72-6.55-1.6-2.4-6.82-2.42-8.52-2.24a2.08,2.08,0,0,1-2.28-1.95,2.17,2.17,0,0,1,1.85-2.41c.92-.1,9.06-.86,12.36,4.07a7.64,7.64,0,0,1,1.24,3.75c3.8.67,6.61.07,7.94-1.75,1.44-2,1.19-5.43-.71-9.46a2.24,2.24,0,0,1,.94-2.94,2,2,0,0,1,2.79,1c2.63,5.59,2.74,10.72.28,14.09-1.12,1.53-3.58,3.73-8.48,3.73a20.47,20.47,0,0,1-3.3-.32,21.77,21.77,0,0,1-1.08,2.9c-5.27,11.5-.15,14.94.07,15.08l0,0a72.29,72.29,0,0,0,10.17.1,60.8,60.8,0,0,1,15.47-8.75c-1.58-.6-3.29-.32-5.1-.32h0c-1.13,0-2.06-1.75-2.08-2.94s.89-2.61,2-2.63a16.88,16.88,0,0,1,5.57.7c-1.28-5.77.59-10.88,5.68-15.63a2,2,0,0,1,2.94.15,2.26,2.26,0,0,1-.18,3.08c-5.1,4.76-6,9.07-3,15.21a1.82,1.82,0,0,0,.25-.07c7.31-1.64,14-4.85,19.66-7.43-.45-2.77-.43-3.64,0-8.92h0c-6.08-2.64-9-6.34-7.83-13.95.19-1.2,1.25-1.58,2.39-1.39a2.4,2.4,0,0,1,1.72,2.73c-.58,3.74-.22,8.58,4.76,9.93.08,0,.15.11.22.14a18.83,18.83,0,0,1,4.12-6.16,2,2,0,0,1,3,.11,2.28,2.28,0,0,1-.09,3.11,16.14,16.14,0,0,0-4.32,13.31c8.49-4.39,14-9.07,14.7-11.9a2.07,2.07,0,0,1,2.55-1.55,2.21,2.21,0,0,1,1.47,2.69c-2.94,11.51-31.42,21.3-41.46,23.57-8.45,1.91-15.7,7-19.23,9.84-1.26,3.31-2,8.5,3.06,12.64,8.09,6.63,28.76,0,28.76,0l.1,0c5.68-2.33,13-5.37,20.78-8.68Zm34.57-51.4a2,2,0,0,1,2.93-.39,2.28,2.28,0,0,1,.37,3.08c-2.72,3.68-3.77,6.93-3.15,9.63.57,2.43,2.53,4.56,5.81,6.36,2.41-2,4.41-4,5.43-6.76a2.07,2.07,0,0,1,2.7-1.26,2.24,2.24,0,0,1,1.19,2.84c-1.71,4.67-5.26,7.48-8.68,10.19-4,3.19-7.85,6.2-9.22,12.25a2,2,0,0,1-2.51,1.63,2.2,2.2,0,0,1-1.54-2.65c1.49-6.57,5.29-10.3,9-13.36-3.4-2.25-5.52-5-6.26-8.19C910.37,163.08,911.68,158.58,915.21,153.79Zm-28.82-5.55c-5.53-2.41-9.12-3.7-13.1,0a2,2,0,0,1-2.94-.18,2.26,2.26,0,0,1,.18-3.1c6.13-5.72,12.14-3.1,17.45-.78,1.18.51,2.31,1,3.41,1.4a8.61,8.61,0,0,0-1.75-5.68c-1.3-1.51-3.37-2.34-6.14-2.47a2.2,2.2,0,0,1,.19-4.39c3.91.19,6.95,1.5,9,3.9s3,5.58,2.85,9.58c3.18.12,6.26-1.47,9.67-6.82a2,2,0,0,1,2.89-.6,2.26,2.26,0,0,1,.57,3c-4.3,6.75-8.63,8.78-12.72,8.78C892.56,150.93,889.31,149.52,886.39,148.24Zm-41.85,58.7a2,2,0,0,1-2.94-.14,2.27,2.27,0,0,1,.13-3.1c6.14-5.9,16.39-7.92,27.25-10.06,6.85-1.36,13.84-2.75,19.68-5.16-1.71-5.58.13-11.2,4.89-15.12a2.32,2.32,0,0,1-.21-.38,13.24,13.24,0,0,1-.24-9.88,11.73,11.73,0,0,1,6.85-6.23,2.06,2.06,0,0,1,2.68,1.28A2.24,2.24,0,0,1,901.4,161a7.56,7.56,0,0,0-4.49,3.9c-.75,1.77-.64,4,.31,6.49a2.4,2.4,0,0,1,.13.69,3,3,0,0,0,2.7-.91,2,2,0,0,1,3-.1,2.28,2.28,0,0,1,.1,3.1,6.92,6.92,0,0,1-5.28,2.32,7.46,7.46,0,0,1-1.14-.08c-3.66,2.73-5.15,6.39-4.17,10.25a24.33,24.33,0,0,0,4.13-2.89,2,2,0,0,1,2.94.28,2.27,2.27,0,0,1-.27,3.09c-7.33,6.44-18.63,8.67-29.57,10.83C859.49,200,849.8,201.89,844.54,206.94Z" transform="translate(-575.68 -88.36)"/><path class="cls-6" d="M888.88,206.41l-4.53,1.94a25.88,25.88,0,0,0,3.48,4.67,1.85,1.85,0,0,1,.38.36.33.33,0,0,1,.06.1,28.79,28.79,0,0,0,17.53,8.3c4.9-.6,13-2.29,18.25-7.12,7.1-6.5,5.43-11.16,2.83-13.91C918.85,200.36,902.63,200.48,888.88,206.41Z" transform="translate(-575.68 -88.36)"/><path class="cls-6" d="M880.59,221.23c2.63,1.46,4.86,4.33,6.15,6.15,5.39,7.57,5.4,19.94,9.89,30.5h9s-4.39-22-4.39-31.24a32.52,32.52,0,0,1-14.79-8.36C885.18,219.22,883.17,220,880.59,221.23Z" transform="translate(-575.68 -88.36)"/><path class="cls-7" d="M870.91,316.64H853.19V509.3l-21.67,10.6v19.56l34.81-14.67,27.1,13V518.27l-21.69-9.76S871.51,371.85,870.91,316.64Z" transform="translate(-575.68 -88.36)"/><path class="cls-8" d="M864.1,705.11s-8.77-7.38-27.26-6.94-22,2.77-30.3,3.46-40.88.73-58.44,27.55S730.06,796.76,738,813c0,0,7.49,38.42.46,47.68,0,0,.41,17.58,45.26-12.51,0,0,33.4.92,48.33-10.17s37.8-39.33,37.8-39.33,36-12.1,38.66-18.34S927,764.82,930,763.91s10.08-21.31,14.49-26.85,22-21.3,14.94-35.18-34.25-.44-45.25,0S879.9,694.46,864.1,705.11Z" transform="translate(-575.68 -88.36)"/><path class="cls-9" d="M833.35,689.69s-.94-102.88,0-162.23,7.51-96.93-15-97.92-47.9,37.59-63.86,61.33-53.53,227.5-32.87,243.33,30.3,15.82,53.65,0S826.77,715.4,833.35,689.69Z" transform="translate(-575.68 -88.36)"/><path class="cls-9" d="M893.47,689.69s.94-102.88,0-162.23-7.51-96.93,15-97.92,47.89,37.59,63.86,61.33,53.53,227.5,32.87,243.33-30.3,15.82-53.66,0S900,715.4,893.47,689.69Z" transform="translate(-575.68 -88.36)"/><path class="cls-10" d="M833.2,553.2c.92,4.34,2.25,9.89,4,15.32.65.1,1.31.21,2,.34l.36-.27c.47-10.21,4.88-23,21.46-31.31-5.17-2.54-8.56-1.28-8.77-1.19a2.57,2.57,0,0,1-1.89,0c-.52-.26-11.7,7.85-12.1,8.33A28.23,28.23,0,0,0,833.2,553.2Z" transform="translate(-575.68 -88.36)"/><path class="cls-10" d="M886.24,543.29l1.07,1.62a2.29,2.29,0,0,1,.28,1.94,2.16,2.16,0,0,1-1.29,1.41c-4,1.52-14.62,6.92-15.16,13.69-.65,8.07,9,10.19,10.64,10.49a54.7,54.7,0,0,1,17.54,1.11c-.22-6.69.09-15.37,5.09-19.73L902,550.56c-2.75,1.49-6.35,3.84-7.56,5.7a2.06,2.06,0,0,1-2.3.88,2.21,2.21,0,0,1-1.53-2c0-.82-.28-7.33,2.45-11.68l-2.61-3Z" transform="translate(-575.68 -88.36)"/><path class="cls-10" d="M814,584.14c-4,8.45,2.59,25.1,7.57,35-.22-3.13-.28-6.21-.25-9.21.17-19.44,8-31.23,13.62-37.19a23.45,23.45,0,0,0-9.66,1.11A19.48,19.48,0,0,0,814,584.14Z" transform="translate(-575.68 -88.36)"/><path class="cls-10" d="M912.42,585.36c-6.26-6.23-14.88-9.09-26.31-8.8a42.25,42.25,0,0,1,8.16,19c.34,1.41,3.27,12.73,11,15.37,4.08,1.43,8.16-.66,10.38-5.33a2,2,0,0,1,2.81-1,2.25,2.25,0,0,1,.94,3,14.74,14.74,0,0,1-6.27,6.85c5.17,5.28,5.38,15.32,5.39,15.86a2.21,2.21,0,0,1-1.44,2.13,1.9,1.9,0,0,1-.63.11,2.15,2.15,0,0,1-2.13-2.17c0-.14-.29-13.56-7.75-14.61-5.87-.82-9.8-5-12.34-9.21-.18,1.38-.4,2.87-.65,4.46a.43.43,0,0,1,0,0c-.3,1.9-.64,3.92-1,6.09-3.19,18.94-7.86,47.41,3.13,61,5,.09,9.45-.11,13.25-1.74h0c10.43-3.26,15.92-12.78,16.29-27.5C925.88,622.75,925.36,598.27,912.42,585.36Z" transform="translate(-575.68 -88.36)"/><path class="cls-10" d="M870.33,672.84a92.4,92.4,0,0,0,19.83,4.78c-9.12-15.4-5.09-41.3-2-59.67a69.41,69.41,0,0,1-6.22,4.61c-.85.58-1.69,1.14-2.49,1.72-1.65,1.39-3.23,2.71-4.77,4a16.92,16.92,0,0,0-1.45,1.74c-4.14,5.87-1.29,13.35-1.27,13.43a2.24,2.24,0,0,1-1.13,2.88l-.14.06a2.07,2.07,0,0,1-2.6-1.24,22.2,22.2,0,0,1-1-10.87c-5.08,3.75-9.82,6.62-14.73,8.33a2.07,2.07,0,0,1-2.65-1.4A2.24,2.24,0,0,1,851,638.4a50.82,50.82,0,0,0,12.77-7.1c-8.78,2.73-11.46.67-12.57-.19a2.29,2.29,0,0,1-.46-3.08,2,2,0,0,1,2.93-.48c1,.78,5.72,2.59,23.44-6.94.84-.6,1.69-1.19,2.54-1.76,3.93-2.68,7.64-5.23,9.83-8.94.35-2.27.65-4.32.83-6.07,1.43-14.21-7.69-25-9.67-27.17-5.47-1.07-14.47-5.34-13.69-15.11.69-8.5,10.62-14.14,15.42-16.38l-5.84-8.76a65,65,0,0,0-6.89,2c-11.67,4.08-25.64,12.85-26,31.49a2.21,2.21,0,0,1-1,1.84c-.68.45-16.84,11.31-17.08,38.35C825.46,624.25,825.07,657.08,870.33,672.84Z" transform="translate(-575.68 -88.36)"/></svg>