<?xml version="1.0" encoding="utf-8"?>
<!-- Generator: Adobe Illustrator 23.0.0, SVG Export Plug-In . SVG Version: 6.00 Build 0)  -->
<svg version="1.1" id="图层_1" xmlns="http://www.w3.org/2000/svg" xmlns:xlink="http://www.w3.org/1999/xlink" x="0px" y="0px"
	 viewBox="0 0 382.6 461.3" style="enable-background:new 0 0 382.6 461.3;" xml:space="preserve">
<style type="text/css">
	.st0{fill-rule:evenodd;clip-rule:evenodd;fill:#D8CEBF;}
	.st1{fill-rule:evenodd;clip-rule:evenodd;fill:#FFFFCC;}
	.st2{fill-rule:evenodd;clip-rule:evenodd;fill:#EA1E1B;}
	.st3{fill-rule:evenodd;clip-rule:evenodd;fill:#FDCC8A;}
	.st4{fill-rule:evenodd;clip-rule:evenodd;fill:#858079;}
	.st5{fill-rule:evenodd;clip-rule:evenodd;}
	.st6{fill-rule:evenodd;clip-rule:evenodd;fill:#CA7B41;}
	.st7{fill-rule:evenodd;clip-rule:evenodd;fill:#8D5F46;}
	.st8{fill-rule:evenodd;clip-rule:evenodd;fill:url(#SVGID_1_);}
	.st9{fill-rule:evenodd;clip-rule:evenodd;fill:url(#SVGID_2_);}
	.st10{fill-rule:evenodd;clip-rule:evenodd;fill:url(#SVGID_3_);}
	.st11{fill-rule:evenodd;clip-rule:evenodd;fill:#483759;}
	.st12{fill-rule:evenodd;clip-rule:evenodd;fill:#FD8646;}
	.st13{fill-rule:evenodd;clip-rule:evenodd;fill:#2D7599;}
	.st14{fill-rule:evenodd;clip-rule:evenodd;fill:#FD9A52;}
	.st15{display:none;fill:none;stroke:#000000;stroke-width:0.216;stroke-miterlimit:2.4142;}
	.st16{display:none;fill-rule:evenodd;clip-rule:evenodd;stroke:#000000;stroke-width:0.216;stroke-miterlimit:2.4142;}
</style>
<g id="Layer_1">
	<g>
		<path class="st0" d="M180.2,5.8c-6.8,4.2-12.6,14.3-13.3,23.3c-1.2,10.4,4.3,6.8-0.5,15.8c-3.6,9.6-10.1,15.2-3.9,17.2
			c3.9,0.8,3.7,3.1,3.7,3.1s-1.1,4.3,0.3,9.5c2,6.2-0.8,10.7,1.7,12.6c3.4,3.4,9.6,1.1,14.4,1.1c1.6,5-3.4,21.9-3.4,21.9
			c-11,2.8-22.2,5.6-33.3,8.2c0,0-16.4-0.9-25.4,11.6c-13.6,14.7-10.9,48.5-10.9,48.5s-12.3,36.1-12.3,45c0,8.7-6.5,22.3-6.5,22.3
			c-12.6,8.8-12.1,27.4-16.9,42.5c10.9,6.5,19.4,8.8,30.6,10.7c8.1-17.1,19.7-34.6,19.7-53.8c3.9-10.9,7.4-21.6,11.2-32.4
			c0,0,9.3,32.7,8.7,45.4c-0.5,7.4-1.1,43.6-3.6,47.9c0,0-2.8,11.8-2.8,20.8c0,8.8-3.1,26.1-11.2,52.1
			c-8.2,25.9-12.6,81.7-12.6,81.7c22,0,44,0,66.2,0c5.7-25,11.3-49.8,17.1-74.6c-0.6,25-1.4,50.1-1.9,75.4
			c20.3-0.3,40.8-0.6,61.4-0.8c8.1-30.1,20.8-78.8,16.4-109.2c-2.2-14.7-6-37.7-6-37.7s1.7-6.4,2-15.8c-8.4-20.8,5-36.1,2-74.7
			c0,0,10.5,27,11.2,32.3c3.4,25,2.5,26.2,16.3,58c8.2-3.6,16.4-7,24.7-10.4c-1.4-13.6-4.3-46.7-14.3-56.6
			c-5-22.3-4.8-45.1-12.9-67.9c0,0,5.3-15-3.9-35c-5.6-13.6-16.4-18-27.4-21.6c-11.3-2.8-34-16.4-34-16.4c-2-8.4-3.6-16.9-1.2-27.3
			c0,0,4.7-11,10.2-18.8c5.6-7.9,6.7-31.9-2.3-44.7C226.9-1.3,195.2-3.7,180.2,5.8z"/>
		<path class="st1" d="M249.5,256.6c-2.6,0-4,2.2-3.7,4.5c0.5,6.7-3.6,15.4-8.7,19.2c-4.8,3.4-6.8,9.3-6.2,15.2
			c0.9,1.7,1.9,3.6,2.8,5.3c0-2.9,0.6-3.6,3.6-3.6c-1.4-0.5-2.6-0.9-4-1.4c0,0-1.2-4.5,0-5.7c1.4-1.2,4.5-2.8,5-4.8
			c0.5-2.2,3.3-8.2,5.9-9.8C250,271.1,249,263.1,249.5,256.6z"/>
		<path class="st2" d="M188.6,12.6c-4,5.4,16.6,5,20.8,5.9c9.8,3.7,8.1,15.8,7.8,26.4c-6-5-11.5-4.8-18.1-7.9
			c-0.2-1.2-0.3-2.6-0.3-3.9c-0.6,0-1.1-0.2-1.7-0.2c-0.2,0.9-0.3,2-0.3,3.1c-1.9-1.2-2.3-2.2-2.6-4c-0.6,0-1.2,0.2-1.9,0.2
			c0.2,1.1,0.5,2,0.6,2.9c-3.3-0.9-3.7-1.4-5.4-4.3c0.2,1.1,0.3,2.2,0.3,3.1c-0.8-1.2-1.7-2.5-2.6-3.9c-2.9,8.1,23.7,9,31,17.2
			c-0.6,6.8-0.9,13.5-0.9,20.3c-4.2-2-9-5-13.8-5.4c-3.1-3.7-13.6-10.4-18.6-7c0.6,0.3,1.1,0.6,1.9,0.9c1.6-1.7,3.9,0.6,5.6,0.6
			c-0.8,0.8-1.7,1.4-2.5,2c1.9,1.2,0.9-0.8,2.8-1.2c1.4-0.2,3.4,0.2,3.4,0.2c-1.1,0.9-1.7,1.7-2.6,2.6c0.2,0.2,0.5,0.5,0.8,0.5
			c0.3-0.3,0.8-0.6,1.2-0.9c0,0.8,0,1.5,0,2.2c2.5,0.6,0.8-0.2,1.7-1.5c1.9-2.5,3.6,0.6,4.3,2.2c-1.1,0.6-2,1.1-2.9,1.6
			c5.3,1.1,7.4-1.2,18.3,5.3c1.9,5.3,0.2,19.5-2.5,23.9c-4.7,9-7,12.7-7,23.7c0.9,0,2,0,3.1-0.2c-0.8-9.3,1.1-14.3,5.7-21.9
			c4.3-7.1,3.3-21.1,3.1-28.8c1.2-33.5,8.8-40.6-11.9-53.7c-0.8,0-1.4,0-2.2,0c1.2,1.2,2.6,2.5,4,3.9c-2.2,0-4.3,0-6.4-0.2
			c-0.3-1.1-0.8-2.2-0.9-3.3c-0.6,0-1.1-0.2-1.5-0.3c0.2,1.1,0.3,2,0.3,3.3c-1.4,0-2.6,0-3.9-0.2c-0.2-0.8-0.2-1.6-0.2-2.3
			c-0.3,0-0.6,0-0.9,0c-0.2,0.8-0.3,1.5-0.3,2.3c-2.3,0.3-3.1-0.6-3.1-2.8C189.6,12.8,189,12.6,188.6,12.6z"/>
		<path class="st2" d="M191.4,86l2.8-0.6c0.9,11.5,2.9,22.6,5.3,33.8l-3.6,0.6L191.4,86z"/>
		<g>
			<path class="st3" d="M162.4,265.2l-2.5,2.6c0,0,2.2,9,2.2,12.9c0,3.7,0.9,6.2,3.1,9.3c2.2,3.3,1.9,7.1,1.9,7.1s0.9,2.9,4,6
				c3.3,3.1,7,7.6,7,7.6l14.6-10.7l-2.9-6.2c0,0-5.4-6.2-6.5-12.6s-3.9-16.9-3.9-16.9l-2-0.6L162.4,265.2z"/>
			<path class="st4" d="M162,265.2c0,0,4.8-0.9,9.5-1.6c4.7-0.8,5,1.4,5,1.4l-2.8,0.9L162,265.2z"/>
			<path class="st5" d="M169.6,263.7c0,0-7.1,1.1-8.1,1.6c-1.1,0.6-1.2,1.2,0.9,1.9c2.3,0.5,5.7,0.5,9.5-0.2c3.4-0.6,6-0.3,5.9-1.5
				c-0.5-1.1-2.5-1.4-2.5-1.4s-1.1,1.7-2.6,1.7C171.2,265.7,169.6,263.7,169.6,263.7z"/>
			<path class="st5" d="M191.7,300.1c0,0-0.6-1.1-2.9,0c-2.3,1.1-6.8,4.3-8.2,6.5s-2.6,3.7-1.4,4.5c1.1,0.9,4.5-1.4,4.5-1.4l1.9-4.2
				l0.2-1.4c0,0,2.5-2.5,3.3-2.8C189.6,301.2,191.7,300.1,191.7,300.1z"/>
			<path class="st1" d="M163.3,271.1c-0.9,3.7,3.9,5.7,4.2,9c-4.2,3.4,1.2,9.9,2.3,14.1c0,3.6,1.7,7.9,6.4,6.7
				c3.1-3.7,0.3-7.1-3.4-8.7c0,0,1.6-5.7-0.5-7.3c-2.8-2.2-2.3-2.6-1.7-5.7c0-3.1-0.2-6.2-0.5-9.5
				C166.8,268.2,165.3,268.2,163.3,271.1z"/>
			<path class="st4" d="M177.7,267.4l-4.8,1.4v5.1c0,0-1.2,2-0.9,2.9c0.5,1.1,2.9,2.5,2.9,2.5l-1.9,2.2c0,0,2.9,0.8,2.9,3.9
				s-2,6-2,6s4-1.4,5.7,0.8c1.7,2,3.4,7,3.4,7l-2.5,4.8l7.4-4.8l0.9,1.2l-5.6,5.1l-0.9,4.3c0,0,4.3-2.2,6-4c1.4-1.9,4.7-5.3,3.6-5.9
				c-1.1-0.9-2.6-1.7-2.6-1.7l-2.5-3.3l-2.7-0.2l2.3-2.9c0,0-1.7-2.9-2.6-3.6c-1.2-0.5-2.2-1.7-2.2-1.7s0.5-4-0.5-4.8
				c-0.9-0.8-2.3-3.4-2.3-3.4s0.5-2.9,0.3-4.8C178.6,271.6,177.7,267.4,177.7,267.4z"/>
			<path class="st4" d="M160.2,267.9c0,0-0.9,3.7-0.2,5.7c0.9,2.2,1.4,4.8,1.7,7.8c0.2,3.1,0.6,5.1,2.2,7.8c1.7,2.3,1.9,3.3,2.6,6.4
				c0.8,3.1,1.6,4.8,2.9,5.9c1.4,1.1,2,2.8,3.4,4.5c1.2,1.6,5.3,4.7,5.3,4.7l-5.3-7.4c0,0-4.2-2.2-4.7-5s0.2-5,0.2-5
				s-3.7-3.9-4.7-7.4c-1.2-3.4,0.9-5.6,0.9-5.6s-3.7-6-3.7-7.8C161,270.5,160.2,267.9,160.2,267.9z"/>
		</g>
		<g>
			<path class="st3" d="M254.5,259.2c0,0-1.9-2.9-4.3-2.9c-2.6,0-4.7,1.2-4.7,3.3c0,2,0.6,8.2-0.9,11.6c-1.4,3.4-8.7,10.7-8.7,10.7
				s-3.6,2.6-4.5,5.4c-1.2,2.8-1.4,6.5-0.5,9s2.8,5.3,5,6.4c2,1.2,5.4,0.2,5.4,0.2l4.2-3.4l-4.2,7.3l0.9,3.3c0,0,0.6,1.7,2.2,1.9
				c1.9,0.5,3.7-1.2,3.7-1.2l6.4-12.9c0,0,1.9-8.7,1.2-11.2c-0.6-2.5-0.9-3.7-2.6-4.3c-1.7-0.5-5.9,0.6-5.9,0.6s6-8.1,6-12.7
				C253.2,265.1,254.5,259.2,254.5,259.2z"/>
			<path class="st4" d="M252.8,257.2c2.8,2.2,1.2,4.2,1.2,7.1c0,1.9,0.8,4.2,0.2,6.8c-1.9,8.1-9.5,14.9-14,21.6
				c0.8,1.1,1.7,2.6,2.6,3.7c2.3-3.3,7.1-5.1,8.7-8.4c1.6-2.9,2-4,2-4c-0.2,2-0.3,4.3-0.5,6.5c-3.6,4.2-7.3,8.2-11.8,11.3
				c2.9-4.7-3.1-5.7-6.2-6c0,0,3.1-2,3.1-4.3c0-4.8,11-12.3,12.4-16.9C252.5,268.5,251.8,263.1,252.8,257.2z"/>
			<path class="st4" d="M255.9,286.5c0.5,6.2,0,10.2-2.6,15.8c-1.7,2.6-3.4,5.4-5.1,8.1c0.2-1.2,0.5-2.6,0.9-3.9
				c2.3-3.9,6.2-11.2,6.2-15.5C255.2,288.5,255.9,286.5,255.9,286.5z"/>
			<path class="st4" d="M241.9,306.5c0,0-0.6,2.5-0.2,3.6c0.2,1.1,1.9,2.2,2.9,2c1.1-0.5,2.5-1.9,2.5-1.9l-0.9-2.2L241.9,306.5z"/>
			<path class="st4" d="M231.2,287.9c0,0-2,5.4-0.9,8.4c1.7,4.8,4.2,8.5,9.9,7.1c0.8-0.8,1.7-1.5,2.6-2.2c0,0-5.1,2.3-7.3,0.6
				C230.9,297.6,230.9,293.5,231.2,287.9z"/>
			<path class="st5" d="M241.7,309c-0.8-3.1,4.3-5,5.1-2.8c0.5,1.6,0.3,4.3-0.2,4.7c-0.5,0.5-0.3-2.2-2.5-2.2
				C242.2,308.7,241.7,309,241.7,309z"/>
			<path class="st5" d="M253.1,289.6c-0.5,4.6-6.5,10.1-9.8,13c-1.4,0.3-2.8,0.6-4,1.1c3.1-2.3,6-5,8.2-8.4
				C250,293.9,252,292.2,253.1,289.6z"/>
			<path class="st5" d="M248,282.4l-7.1,7.4l-1.7,3.7l-1.7,1.6l2.2-1.1l2.6,1.7l-1.4-3.1c0,0,0.5-0.8,1.4-2.2
				C243.1,289.1,248,282.4,248,282.4z"/>
			<path class="st1" d="M243.1,291.8c0.2-0.3,2.8-5.7,4.8-7.6s2.8-2.2,4-1.7c1.2,0.3,1.7,0.9,1.7,0.9s-2.8,0.3-3.6,1.1
				c-0.9,0.8-2.3,3.7-3.9,5.1C244.7,291,243.1,291.8,243.1,291.8z"/>
			<path class="st1" d="M242.7,305.9c1.1-0.2,2-0.5,3.1-0.5c1.2-4,3.7-8.2,5.7-11.9C247.8,297.5,245.3,301.2,242.7,305.9z"/>
		</g>
		<g>
			<path class="st6" d="M249.5,226.3c0,0-0.5,0.3-1.2,2.3c-0.5,1.9,0.3,3.9,0.9,5.9c0.8,2.2,2,7.4,2,7.4l0.6,3.6
				c0,0,3.1-0.5,3.7-4.3c0.6-3.7-0.2-10.2-1.5-12.3C252.8,226.9,249.5,226.3,249.5,226.3z"/>
			<path class="st7" d="M248.3,226.9c2.5-3.6,7,0.5,8.1,2.6c1.1,2.5,2.2,5.4,1.4,9.3c-0.2,0.5-4.3,10.4-6.4,6.7c0,0,3.3-3.9,3.3-6.5
				c0-2.3-0.8-8.2-3.3-10.4C249,226.3,248.3,226.9,248.3,226.9z"/>
		</g>
		<path class="st5" d="M199,234.1l-3.7,5.9c0,0,5.1,2.5,5.1,5s-0.6,14.1-0.6,14.1l0.6,6.2l8.5,3.6l0.3-6.8l-0.6-19.4L199,234.1z"/>
		<g>
			<path class="st6" d="M233.2,222.3c0,0-2.8-1.2-5.9,0.5c-3.1,1.9-3.6,5.1-3.6,6.8c0,1.9,1.4,7.1,2.8,8.4c1.4,1.4-0.2,6.2-0.2,6.2
				l0.2,2.8c0,0-2.3,0.2-2.3,3.3c0,2.8-0.9,4.2-0.3,6.5c0.8,2.5,2.9,5.3,5.1,6c2.2,0.9,7.1,0.5,8.8-0.5c1.7-0.8,6.8-10.1,6.8-18
				c0-8.1-3.7-17.5-5.7-19.2C236.9,223.2,233.2,222.3,233.2,222.3z"/>
			<path class="st7" d="M223.5,230.3c0,3.1,0.8,6.8,3.4,8.7c0,0.8-0.3,1.4-0.3,2.2c2.6-1.2,5.1-2.8,8.1-2.8
				c-0.8-0.6-1.4-1.2-2.2-1.7C226.4,237.8,226.9,232.8,223.5,230.3z"/>
			<path class="st7" d="M226.4,243.8c2.5,4.3,6.7,5.6,11,6.8c-1.6,0-3.3,0-4.8,0.2c-7.8-4.2-9.1-1.4-8.1,6.8c-2-4.3-2-8.8,1.9-11.8
				C226.4,245.1,226.4,244.5,226.4,243.8z"/>
			<path class="st7" d="M229.7,222.1c17.5-5.7,17.1,25,14,33.7c-2.6,6.8-10.4,11.2-16.3,4.3c5,0.3,8.7-0.1,11.9-4.3
				c-0.3-0.9-0.6-1.5-0.9-2.3c4.5-3.1,4.8-9.9,0.5-13.2c3.4-5,0.9-7.8-3.3-11.3C238.3,223.4,233.8,223.1,229.7,222.1z"/>
		</g>
		
			<radialGradient id="SVGID_1_" cx="162.7918" cy="127.5566" r="64.8016" gradientTransform="matrix(1 0 0 1 0 42)" gradientUnits="userSpaceOnUse">
			<stop  offset="0" style="stop-color:#E6E6E6"/>
			<stop  offset="1" style="stop-color:#4D4D4D"/>
		</radialGradient>
		<path class="st8" d="M176.8,129.9c-17.1,2-27.4,28.4-29.5,42.5c-1.9,13.5-2.8,31.9-0.8,42c2,10.2,10.1,20,10.1,20
			s24-29.6,29.8-33.3c5.4-3.7,8.4-8.8,8.4-13.5c0-4.8,1.7-37.4,1.7-37.4C192.9,144.3,185.9,128.8,176.8,129.9z"/>
		
			<radialGradient id="SVGID_2_" cx="227.5213" cy="122.8144" r="59.4363" gradientTransform="matrix(1 0 0 1 0 42)" gradientUnits="userSpaceOnUse">
			<stop  offset="0" style="stop-color:#E6E6E6"/>
			<stop  offset="1" style="stop-color:#4D4D4D"/>
		</radialGradient>
		<path class="st9" d="M207.9,135.1c0,0,3.3-10.4,10.7-9.9c21.1,1.2,39.5,44.8,41.9,62c0.2,1.6,3.1,40.9-7.6,36.8
			c0,0-6.2-8.4-13.8-11.5C210.4,201.7,211.7,161,207.9,135.1z"/>
		<path class="st2" d="M205.8,128.3c18-27.4,47.8-13.3,58.3,13.6c13,25,23.3,82.2,31.2,94.9c8.2,12.1,14,18.5,17.5,32.9
			c-5-9.8-10.4-19.4-17.5-27.8c0.2,23.7,4.5,46.2,10.2,69.2c-0.9-0.5-1.4,0.9-2.2,0.5c-9.6-32.1-9.8-61.4-13.5-78.3
			c-11.9-30.6-17.1-62.3-31.5-93.2c-8.1-17.1-37.4-34.3-46.2-9L205.8,128.3z"/>
		<path class="st2" d="M204.1,128c0,0-7-10.1-11.5-12.6c-25.3-15-47.6,25-54.4,39.1c-10.5,21.6-21.1,61.9-30.4,85.4
			c-13,17.5-22.2,27.1-29.6,49.8c1.1,0.3,1.9,0.8,2.6,1.2c7.6-18.5,12.6-30.1,26.7-44.4c2.6,18.8-1.4,33.7-7.9,51
			c0.9,0.2,1.9,0.5,2.5,0.9c14.6-35.2,5-46.8,11.3-64.7c7.1-20.5,48.2-161.9,86.5-103.9C201.3,129.4,202.7,128.8,204.1,128z"/>
		
			<radialGradient id="SVGID_3_" cx="180.7985" cy="178.7392" r="53.0268" gradientTransform="matrix(1 0 0 1 0 42)" gradientUnits="userSpaceOnUse">
			<stop  offset="0" style="stop-color:#FE9929"/>
			<stop  offset="1" style="stop-color:#655237"/>
		</radialGradient>
		<path class="st10" d="M233.8,206.3c0,0-10.9,8.4-15.4,12.1c-8.1,6.7-5,13-19.4,12.1c0,0-0.5,5-4.8,7.4c-4.5,2.5-19.5,11.8-22,14.7
			c-2.5,3.4-6.7,11.6-9.9,9.6c-3.3-2-10.4-17.1-6.7-34c4.3-20.6,21.6-35.7,44-31.2c3.4,0.8,9.1,1.6,9.1,1.6
			C217.6,197.9,228.7,197.9,233.8,206.3z"/>
		<path class="st2" d="M209.3,223.7c0,9.1,0,18.5,0,27.6c0.3,19.7-2.8,29.6-11.2,46.8c-10.9,16-21.1,29-34.4,43.1
			c-3.4,1.6-7,3.1-10.4,4.5c0,0.8,0,1.6,0,2.3c2.2-0.6,4.2-1.2,6.4-1.9c-25.4,27.1-31,80.2-37.1,115.1c1.1-0.2,2.2-0.3,3.1-0.5
			c7.9-37.8,11.6-82.2,36.6-113c-5.4,15.5-7.6,29.2-9,45.3c5.4-25.6,8.4-47.8,28.7-65.8c-20.6,45.4-31,85.1-42,133.5
			c1.2,0,2.5,0,3.4,0c15-60.9,29.8-103.9,57.8-159.1c0,0,9.8-16,12.1-15.2c29.8,38.9,21.4,112.6,16.7,174.3c1.1,0,2.2,0,3.4,0.2
			c2.6-42.6,9.6-89,4.2-131.5c17.5,19.2,15.7,34,8.8,56.9c0.5,0,0.9,0,1.4,0c2-7,4.2-14.1,6.4-21.1c7.1,13.3-6.2,78-8.5,95.4
			c0.9,0,2,0,3.3,0c5.4-32.3,17.5-80.8,6-112.3c2.3,0.5,4.7,1.2,7.1,1.9c0-0.5,0-1.1,0-1.5c-15.4-6.5-31.9-45.6-38.3-59.6
			c-1.2-7.4-2.3-14.7-3.3-22c0,0,7.6,6,8.1,7c0.5,0.9,3.6,11.9,3.6,11.9c0.3-0.5,0.8-0.6,1.2-0.9c-1.2-3.7-2.2-6.4-1.2-10.5
			c1.4,2.3,2.9,4.5,4.5,6.7c0.3-0.5,0.6-0.9,1.1-1.2c-0.9-1.9-1.9-3.6-2.6-5.4c2,0.5,4,0.9,6,1.4c0.5-0.5,0.6-0.8,1.1-0.9
			c-1.1-0.3-2.3-0.5-3.4-0.8c1.2-1.6,2.9-3.7,4.2-5.1c1.2,0,2.6,0,3.9,0.2c-0.8-0.6-1.4-1.2-2-1.7c-1.4,0.5-3.1,0.9-4.5,1.6
			c0,0-1.2,2.9-6.2,2.9c-6,0.2-10.9-5.6-14.1-9.6c-0.6-8.8-1.2-17.7-1.7-26.5c2,3.4,3.4,6.4,7.4,7.4c0.2-0.8,0.5-1.7,0.6-2.5
			c-3.1,0.9-7.3-12.7-7.8-14.9C215.1,221.5,214.1,222.9,209.3,223.7z"/>
		<path class="st11" d="M197.1,153.4c0,0-5.9-14.1-2.8-20.8c8.2-17.7,35.2-10.5,45.9,0c23.4,22.5,22.5,59.9,35.2,87.9
			c4.6,10.4,18.9,35.7,24.7,46.7c5.6,11.3,12.3,36.1,12.3,36.1c0-33.2-24.7-56.8-34.3-87c-7.8-23.7-13.2-65.4-32.3-83.1
			c38,12.4,47,55.1,51.6,90.1c2.2,12.9,2.8,35.2,8.1,40.5c0,0-5.9-39.2-8.1-53.2c-6.4-43.7-16.6-68.5-56.9-83.7
			c-11.8-7.1-28.1-16.1-42-9c-6,3.3-5.1,7.4-7.8,7.4c-2.3,0-2.2-7.4-2.2-7.4c-1.4-0.2-2.9-0.5-4-0.9c0.2,2.3,0.5,4.7,0.6,7
			c-7.1-7.4-17.8-1.9-23.3,4.5c0.9,1.6,1.6,2.9,2.3,4.3c7.8-6.8,20-10.2,21.4,4.3c0.9,9.6,2.8,11.6-0.2,14.7
			c-2.8,3.1-8.5,7.9-8.5,7.9c0.5,0.6,1.1,1.4,1.6,2c2.2-2.5,9.6-7.8,12.3-2.9C192.7,157.1,194.9,155.3,197.1,153.4z"/>
		<path class="st11" d="M176.9,159.6c-2.6,2.6-4.8,12.3-5.9,16c-0.9,3.3-2.9,7-6.4,8.2c0,0.6,0.2,1.4,0.2,2c2-0.6,3.1,0,4.8,0.9
			c0.5-0.5,0.6-0.8,0.9-1.1c-3.7-2.2-1.9-3.4,1.4-2.8c5-3.3-1.9,0.2-1.4-2c0-0.9,2.9-6,2.9-6c0.5,1.7,0.9,3.4,1.4,5.1
			c0.6-0.5,1.1-0.8,1.6-1.1c-1.4-7.1-0.2-11,2.2-17.5C178.2,160.7,177.5,160.1,176.9,159.6z"/>
		<path class="st11" d="M174.9,179.2c0,0,0,1.7-0.6,2.2c-0.8,0.5-2.3,1.7-2.3,1.7s0,1.4-0.5,2c-0.5,0.8-1.4,0.6-1.4,0.6l-0.8,1.1
			c0,0,0.2,0.8-0.8,1.1c-0.9,0.3-3.3,0.2-3.3,0.2s-0.9,2.2-0.6,3.3c0,0.9,2.2,2.3,2.2,2.8c0,0.6-2.2,1.1-2.2,1.1l-0.3,0.9
			c0,0,2.5-0.2,3.3-0.9c0.6-0.6,0-2.2,0-2.2s-2-1.4-1.9-2.2c0.3-0.8,1.4-0.2,1.4-0.2l2,2.5l0.8-0.6c0,0-2.5-2.3-2.2-2.9
			c0.3-0.8,1.2-0.5,2.2-0.8c0.8-0.3,1.2-1.6,1.2-1.6l1.6,3.1l0.8-0.8c0,0-1.1-2-1.1-3.1c0-0.9,0.6-2.2,0.6-2.2l2.5,2.3l0.8-0.6
			c0,0-1.7-1.1-2.3-1.9c-0.5-0.8-0.2-1.9,0.5-2.3c0.6-0.5,1.1-0.2,1.4,0.3c0.5,0.5,1.1,2.3,1.1,2.3s1.6,1.4,1.6,3.1
			c-0.2,1.7-0.8,2-1.7,2.5c-1.1,0.3-2,0.3-2,0.3s0.3,1.7-0.9,2.8c-1.1,0.9-1.9,0.9-1.9,0.9s-0.6,2-2.3,2.5s-2.5-0.5-2.5-0.5
			l-1.1,0.9c0,0-0.5,1.1-0.9,1.2c-0.5,0.2-0.8-0.3-0.8-0.3l-0.2,1.9c0,0,1.1-0.2,1.9-0.8c0.8-0.6,1.1-1.4,1.1-1.4s2,0.5,3.4-0.2
			c1.2-0.8,1.9-2.3,1.9-2.3s1.7-0.2,2.5-1.7c0.6-1.7,1.1-2.3,1.1-2.3s2.5,0.5,3.1-1.7c0.8-2.2-0.3-4.3-0.3-4.3l-2.3-6.5L174.9,179.2
			z"/>
		<path class="st11" d="M177.4,183.8L176,186c0,0-0.6,0.5-0.9,0.8c-0.3,0.3-2.6,3.6-2.6,3.6s-0.2,1.2-0.9,1.4
			c-0.8,0.3-2.2,0.8-2.2,0.8l-1.9,1.4v1.2c0,0,2.6-2,3.1-2c0.6,0,1.4,1.9,1.4,1.9l0.6-0.9c0,0-0.2-1.9,0.5-2.5
			c0.8-0.8,1.7-1.2,1.7-1.2l0.8-0.2c0,0-0.9-0.6,0-2c1.1-1.4,2.5-3.3,2.5-3.3L177.4,183.8z"/>
		<path class="st11" d="M195.5,189.1c0,0,1.6,8.7,0.3,11.6c-1.1,2.9-7.9,5.9-12.9,7c-4.8,1.2-8.7,2-10.7,5.3
			c-2.2,3.3-9,11.6-10.5,14.1c-1.7,2.3-2.8,4.3-2.8,4.3s-1.6,3.1-1.6,5.9c0,2.8,0.6,5.7,0.6,5.7s-0.3-5.1,0.9-8.1
			c0.9-2.6,1.6-3.7,1.6-3.7l0.3,5.3l0.8-3.3l3.3,2.6c0,0-2.5-2.9-2.8-4.2c-0.3-1.2,0-2.9,0-2.9l2.2-2.3c0,0,1.1,2.3,1.9,3.3
			c0.5,1.2,2.2,2,2.2,2s-1.4-2.5-2-4c-0.6-1.7-0.6-2.5-0.6-2.5l2.8-3.1l3.1,5.6l0.2-1.7c0,0-2-4.5-1.4-5.4s1.9-0.9,1.9-0.9
			s1.9,0.9,4,0.3c2.2-0.6,4-1.2,4-1.2l3.6,2l-2.6-2.9l3.4-1.9l3.3,2.9l-1.9-3.6l2.8-2.9c0,0-4,2.3-5.1,2.5c-1.2,0.3-4.2,2.9-6.2,3.1
			c-2.3,0.3-4.5,0.9-4.5-0.6c0-1.7,0.9-3.9,3.1-5c2.2-1.1,9-2,12.1-3.4s7.6-4.5,8.8-3.7c1.1,0.9,2,19.4,2,19.4h7.8l-1.6-31
			c0,0-3.7-1.4-6.2-2.5C196.6,189.9,195.5,189.1,195.5,189.1z"/>
		<path class="st11" d="M196.2,238.9l5.1,5.1c0,0,0.5,6.7-0.2,9.3c-0.8,2.8-1.4,4-1.4,4l-0.8-13c0,0-1.2-0.9-2.8,0.2
			c-1.4,1.4-2.6,2.8-2.6,2.8s-2,0.3-2.3-1.1c-0.3-1.4,0.5-2.6,0.5-2.6L196.2,238.9z"/>
		<path class="st11" d="M199.4,228.2c0.5,2.3-0.5,5.1-0.9,7.6c3.1,3.4,6.4,6.2,10.2,8.7c0-1.2,0.2-2.3,0.2-3.6c0,0,5,2.6,9.6,2.6
			c5,0.3,5.7-0.6,9,2.5c0-1.4-0.5-3.4-2.2-3.4c0.8-0.6,1.7-1.2,2.6-1.9c-9.5,1.7-22.6-0.5-20.5-12.6
			C204.7,228.2,202.1,228.2,199.4,228.2z"/>
		<path class="st11" d="M200.7,262.4l0.2,29.9c0,0,6.4-11.3,7.1-15.5c0.9-4.3,1.4-8.5,1.4-8.5l-5.3-8.4L200.7,262.4z"/>
		<path class="st11" d="M147.2,460.8h3.1c0.9-3.4,23.7-94,33.3-107.5c6.5,9.5-14.6,96-16.7,107.5l2-0.3c0,0,18.3-75.5,18.8-87.5
			c0.8-11.9,1.1-23.7,2.9-29.2c2-5.6,14.1-38.6,16.4-40.2c2.5-1.5,4.5-0.3,6,3.6c6.2,16.7,11.2,32.9,6.2,50.7
			c-9.1,34.1-11.3,67.9-14.1,103.3h2c0.8-8.2,7.9-100.5,18.3-104.8c3.7-1.4-2.6,93.7-3.1,104.5h2.2c0,0,7.1-96.1,6.4-102
			c-2.2-24.5-7-41.4-17.1-64.4c-0.6-3.3-2.3-7.4-2.3-7.4c-3.6,5.1-7,10.1-10.5,15c0,0-7.6,21.6-9.3,26.8
			c-4.8,14.4-15.5,29.9-19.7,45C162.5,403.3,154.8,431.5,147.2,460.8z"/>
		<path class="st11" d="M165.3,126.8c-59.7,2.9-61.1,125-75.4,167.5c1.1,0.2,2,0.5,2.9,0.6c14.6-37.5,16.4-160.2,71.5-164.1
			L165.3,126.8z"/>
		<path class="st11" d="M162.5,128.5c-36.8,29.2-29,98.6-63,137.7c-0.3,2.2-0.6,4.3-0.9,6.4c37.7-31.9,33-123.9,66.7-140.8
			C164.4,130.6,163.4,129.7,162.5,128.5z"/>
		<path class="st2" d="M209,195.6c0,0,1.1,25.4,0.2,27.8c-0.8,2.2-10.7,2.6-12.7,0.3c-2.3-2.6,2.8-12.7-6.4-12.7
			c4.5,3.3,4.8,6.2,3.1,11.2c-1.6-1.7-2.9-3.6-4.3-5.4c1.1,2.5,2.5,4.8,3.9,7.3c-2.2,6.2-6.7,8.5-12.1,12.4
			c-2.8,0.5-5.6,0.9-8.2,1.4c2.5-0.3,5-0.5,7.3-0.6c-2,1.9-4.2,3.7-6.4,5.7c1.2-0.3,3.6-1.9,5-2c5.4-5.9,10.5-8.2,16.3-13.3
			c0,0,8.4,1.4,10.7,1.1c2.6-0.5,9.5-3.9,9.5-3.9s3.9,2.8,5.7,5c5.1,6.1,21.4,6.7,29.3,6.7c-2.6-1.9-2.6-1.4-0.3-3.6
			c-0.5-0.3-0.8-0.6-0.9-0.9c-2.8,5.7-21.6,0.6-24.7-2.8c-3.7-3.4-5.1-5.7-5.1-5.7c-0.5-8.7-0.8-17.2-0.9-25.9
			C214.8,197,212,196.2,209,195.6z"/>
		<path class="st11" d="M192.4,217.8c-0.6,3.6-1.2,7.1-1.7,10.9c6.4,7.6,14.6,18.5,25.6,19.9c13.5,1.9,23-4.3,33.2-11.8
			c1.9,0.8-0.5,0.3-0.9,1.6c-0.3,0.6,2,0.2,2,0.2c0,0.5,0.2,0.9,0.3,1.4c-1.1,0-2.2-0.2-3.1-0.2c-7.6,5.7-16.4,11.6-26.4,11.2
			c-7.4-0.2-15.2-3.4-18.1-6c-3.1-2.6-11.6-11.9-12.9-13.3c-1.1-1.2-2-2.5-6.4-0.9c-4.3,1.9-11.6,4-13.6,5.7
			c-1.9,1.7-5.6,5.1-5.6,5.1c1.6-2,2.8-3.9,4-5.6c-0.9-0.5-2-0.9-3.1-1.7c4.7,1.2,8.7-0.8,12.9-2.3c-1.7-3.4-4.7-2.5-8.1-2
			c1.6-0.6,2.9-0.9,4.3-1.6c0-1.6,0-3.1,0-4.7c0.6,1.6,1.1,2.9,1.6,4.7c1.1,0.5,2.3,1.6,3.1,2.8c2.5-1.7,5.4-2.6,8.5-2.6
			c0-0.5,0-1.1,0-1.7c-2.9,0.6-8.2-0.2-8.8-3.9c1.6,1.6,3.9,2.8,5.9,2.3c0-1.1-0.2-2.2-0.2-3.6c0.5,1.4,1.1,2.5,1.9,3.6
			c0.8,0,1.7,0,2.6-0.2C190.3,222.4,191.5,220.1,192.4,217.8z"/>
		<path class="st2" d="M207,264c0,0-7.6,7-10.9,9c-3.4,2.2-8.5,4.3-8.5,4.3s-0.8-0.5-2-4.8c-1.1-4.3-1.6-7.3-1.6-7.3l-2.3,0.3
			l0.5,7.3l-6.4,3.6l3.4-0.6l3.6-1.7l1.2,2.8c0,0-3.4,2.3-4.3,2.6c-0.6,0.5-4.3,0.2-4.3,0.2l2.9,1.7v5.1l2.6-4.7
			c0,0,2.2-3.1,3.1-3.3c0.9-0.2,2.8,3.3,2.8,3.3s2.9,2.2,2.9,4.2c0,1.9-2.5,5.7-2.5,5.7l-3.1,5.9l3.7-4.3l5.6-6.4l-5.6-7.8
			c0,0,7.9-2.8,10.5-5c2.8-2.3,10.1-8.7,10.1-8.7L207,264z"/>
		<path class="st11" d="M202.7,246.2c0,0,0.6,5.6-1.4,9.6c-2.2,3.9-11.2,13.5-11.2,13.5s-1.9-0.5-1.9-2.2c0-1.5-0.6-3.7-0.6-3.7
			l-2.6,0.9l1.4,5.9h-9.5l2.5,1.2c0,0,6.2,0.5,7.9,1.1c1.9,0.5,2,2.5,2,3.7c0,1.1-2.5,9.3-2.5,9.3l-3.7,2.2l2.5,0.6l1.7-1.9v2.8h1.7
			c0,0-0.2-6,0.5-7.9c0.3-2,1.9-3.6,1.9-3.6l2.9,2.9l-1.9,4.5l0.9,0.9l2.2-3.9l2.9,2l0.3-2c0,0-6.8-6.7-6.8-9.3
			c0-2.8,4.8-7.3,4.8-7.3l6.7-8.2c0,0,5.4,7.9,7.4,10.4c2,2.6,7,6.2,11.2,8.7c4.3,2.6,6.2,5.3,6.2,5.3l2.3,4.8c0,0-1.1-4.3-1.1-6.4
			s6.8-2,6.8-2l6.1,2.6l-1.7-2l3.1-0.3c0,0-5-0.6-5.7-1.5c-0.8-0.6,0.5-1.9,0.5-1.9l2.5-2.6l4.2,0.5l1.9,1.6l-0.8-2.2l1.9-1.9
			l-3.7,1.6l-2.9-0.5l0.8-2.8l4-0.5l2.5-0.8l-2-0.2l0.8-2.3l-2,2.3l-3.6,0.5l-0.2-1.7h-2.2c0,0,1.4,5.3-2.6,7.3
			c-3.9,2-6.4,4.7-11.5,2c-5.3-2.5-11-6.5-14.9-12.6c-3.9-6.2-5-15.5-5-15.5L202.7,246.2z"/>
		<path class="st2" d="M187.3,145.4c0,0-15.4,1.7-21.1,8.2c-11.9,13.3-13,22.2-11.5,40c0.5,4.7,1.4,11.9,8.5,7.1
			c-0.8-0.3-1.2-0.6-2-1.1c-3.3,1.6-3.7-3.3-3.7-5.3c2.6,1.7,3.9,1.7,7.1,1.7c-0.8-2.6-5.7-0.9-7.6-3.6c-0.9-0.9-0.6-5.4-0.6-5.4
			c1.9,2,3.4,1.6,5.9,1.1c-0.3-0.5-0.6-0.9-1.1-1.4c-2.3,0-3.7-0.2-4.2-2.6c2.3,0.8,4.7,1.9,7.1,2.2c0-3.1-3.3-1.9-5.1-3.7
			c-7.4-17.5,16-32.1,28.4-33C187.3,148.2,187.3,146.8,187.3,145.4z"/>
		<path class="st2" d="M160.3,188.2c0,0,0.8,2.5,0.3,2.9c-0.5,0.6-2.2,0.2-2.2,0.2l-0.6-3.3l-1.1,5.6h0.8c0,0,0.9-1.9,1.9-1.4
			c0.8,0.5,2.6,2.9,2.6,2.9l0.8-0.2l-1.7-2.9c0,0,0.9-0.9,0.9-2c0-0.9-0.8-2.3-0.8-2.3L160.3,188.2z"/>
		<path class="st2" d="M160.5,195l-0.9,5.7l1.2-0.5l0.8-4.8L160.5,195z"/>
		<path class="st2" d="M161.7,184.4l-0.9,2l0.9,2.3l2.6,1.6l0.5-1.7c0,0-0.9,0.2-1.9-0.6c-0.9-0.8-0.5-2.6-0.5-2.6L161.7,184.4z"/>
		<path class="st11" d="M216.3,149.5c0,0,12.1-0.9,16,2.9c3.7,3.9,4.8,12.3,6,20.5c1.2,8.4,3.9,10.4,5.6,11.6
			c1.9,1.2,1.2,0.9,1.2,0.9s2,2.6,2,4c0,1.6-0.3,2.6-0.3,2.6s1.4,0.3,1.4,0.9c0,0.8,0,0.9,0,0.9s-0.6-1.1-1.7-1.1
			c-0.9,0-0.6,1.6-0.6,1.6s1.4,1.6,1.7,1.4s0.9-0.3,0.9-0.3l0.2,2.3c0,0-1.1-0.5-1.4-0.2c-0.3,0.2-1.5,0.9-1.1,1.9
			c0.5,1.1,1.2,2,1.9,2c0.5,0,1.4-1.1,1.4-1.1l0.8,1.2c0,0-1.1-0.2-1.1,0.8c0,0.6,1.9,0.3,1.9,0.3l0.2,1.1c0,0-1.1,0-2.5-0.2
			c-1.2-0.5-4-4.3-4-4.3s1.1-1.1,1.1-2.3c0-1.1-0.9-2.6-0.9-2.6l-1.1-0.2l-1.4,2.2l-0.9-0.5c0,0,1.9-2,1.9-2.5s-0.9-2.5-0.9-2.5
			l0.8-0.5c0,0,0.6,1.9,1.5,1.9c0.8,0,1.6-1.9,1.4-2.9c-0.3-1.2-1.9-2.9-2.9-4c-1.4-0.9-3.1-2.5-3.1-2.5l-2.2-1.9
			c0,0-2.2-13.3-2.8-17.1c-0.9-3.9-2.6-8.1-4.5-9.5s-5.1-2.3-8.2-2.3s-6.4,0.6-6.4,0.6L216.3,149.5z"/>
		<path class="st11" d="M237.7,179.5c0,0,0.6,9.1,0.6,10.2s0.8,4.2,1.4,5c0.8,0.9,5.4,5.4,5.4,5.4l0.3-1.2l-3.3-2.9
			c0,0-2.2-2-2.2-2.9s0-1.9,0.6-2.2c0.8-0.2,2.2,0.9,2.2,0.9l0.3-0.9c0,0-0.8-0.9,0-1.9c0.5-0.9,1.7-1.7,1.7-1.7l-0.6-0.6
			c0,0-2,0.6-2.3,1.2c-0.2,0.8-0.5,1.7-0.9,1.7c-0.5,0-0.9-0.9-1.4-1.9c-0.3-1.1,0-5.9,0-5.9L237.7,179.5z"/>
		<path class="st2" d="M207.2,141.6c-1.9,1.4-1.1,4-0.2,5.7c2.9-0.9,1.4,8.5,1.2,9.6c0.9,2.2,5.6,2.6,6.5-0.2c0,0,0.5-5.7,2.3-7.8
			c8.5-10.2,24.3,4.2,27.6,12.3c3.1,7.4,3.4,17.4,3.4,17.4c-0.5,1.4-2.6,6.7-1.4,7.8c0.3-1.6,2.5-6,4.3-2.5c0.3,1.2,0.5,2.5,0.8,3.7
			c-1.4,0.5-2.6,1.1-3.7,1.7c0,0.3,0,0.6,0,0.8c3.7-2,8.7,3.9,1.9,5.6c0,0.6,0.2,1.1,0.3,1.6c5.9-2.3,4.7,4.3,0.9,5.7
			c0,0.3,0,0.8,0,1.1c3.9-0.6,6.2-5.3,3.1-8.4c0.5-2.2,1.1-5.4-1.2-6.7c0-3.3-0.8-6.5-2-9.1c-1.2-17.8-5.4-38-29.5-38.6
			c-2.8,0.3-9.1,3.7-9.1,3.7C210.7,144,209,142.9,207.2,141.6z"/>
		<path class="st2" d="M246.7,185.1l2.5,4l1.1-0.5c0,0-1.1-1.2-1.1-1.7c0.3-0.3,2.2-2,2.2-2l-0.5-1.4c0,0-1.2,1.9-1.9,1.9
			c-0.9,0-1.9-0.9-1.9-0.9L246.7,185.1z"/>
		<path class="st2" d="M248.7,192.5l0.3,1.4c0,0,1.4-0.5,1.9,0.2c0.3,0.5,0.5,2.9,0.5,3.9c0,0.9-1.4,2.3-1.4,2.3l0.6,1.1
			c0,0,1.4-1.1,1.7-1.7c0-0.8-0.2-5.1-0.5-5.7c-0.3-0.9-1.4-1.4-1.4-1.4l0.6-3.3l-0.8,0.2c0,0,0.2,1.2-0.3,1.9
			C249.5,192,248.7,192.5,248.7,192.5z"/>
		<path class="st2" d="M216.3,143c-0.9-6-2.5-12.9-8.8-15.2c-6.5-2.2-12.4,7.3-12.7,12.1c-0.3,3.9,0.8,17.8,6.5,18.3
			c3.4,0.3,6.7-1.7,6.7-4.2c0-2.2-2.8-11.6-1.2-13c2.2-1.7,3.6,3.7,3.9,4.3C212.4,145.5,216.3,146,216.3,143z"/>
		<g>
			<path class="st12" d="M196.6,151.1l-6.7,8.5c0,0-1.6,11.2,0.3,17.1c2.3,6.2,2.3,10.4,8.5,13c6.4,2.8,17.1,7.1,23.3,7.1
				c6.4,0,9.3-0.3,9.9-3.4c0.6-3.1,0.8-14-2.2-18.3c-2.9-4.3-11.3-18.3-11.3-18.3l-0.5-5.3l-13.8-3.4L196.6,151.1z"/>
			<path class="st7" d="M190.1,157.3c-0.9,8.5-2.8,24.5,4.7,30.7c5.7,4.7,21.6,9.9,29.2,9.5c2.6-0.2,5.7-1.2,5.7-1.2s-4.2-1.9-6-1.7
				c-1.7,0.5-7-2-9.3-1.6c-2.3,0.5-6.4,0-6.4,0s5.9-2.2,5.6-2.2s-9.3,0.8-9.3,0.8s4.2-2,3.7-1.9c-0.3,0.2-7.1-0.2-7.1-0.2
				c1.1-0.5,2.3-0.9,3.4-1.4c0,0-5.7,1.4-7.6-0.8c-7-7.4-6.4-13.8-6.4-23.7C190.7,161.8,191.5,159.2,190.1,157.3z"/>
			<path class="st7" d="M196.2,152c0,0,0,6-0.3,7.9c-0.5,1.9-2.6,4.2-2.9,5.6c-0.3,1.6-0.6,3.6-0.6,3.6c1.2-2.3,2.2-4.7,4-6.5
				c-2,5.4-2.9,8.7-2.2,14.3c0.3-0.6,0.5-1.4,0.8-2.2c0.2,1.6,0.3,3.1,0.5,4.8c0.5-1.4,0.8-2.6,1.2-4c0.3,1.7,0.6,3.4,1.1,5
				c0.8,0.2,1.7,0.3,2.6,0.5c-0.9,0.5-1.9,0.8-2.8,1.2c1.9,0.3,3.7,0.5,5.7,0.5c-2,0.5-3.9,0.6-5.7,0.9c1.7,0.3,3.4,0.6,5.3,0.9
				c-1.2,0.5-2.5,0.9-3.9,1.2c0,0,5.3,0.3,5.7,0.6c4.3,2.8,8.1,3.4,13.2,3.9c0,0-9.5-3.9-10.7-5.3c-1.4-1.4-5-5-5-5
				c-1.1-0.2-2-0.5-3.3-0.9c1.7-0.5,3.3-0.9,5.1-1.4c-1.9,0-3.4,0-5.1,0c-0.2-1.1-0.5-2.2-0.6-3.3c-0.8-0.5-1.4-1.1-2.2-1.6
				c0-1.4-0.2-2.8-0.2-4.2c0.9,0.9,1.9,1.7,2.8,2.3c-1.1-2.8-1.9-4.7-1.2-7.8c0.9,0.6,1.9,1.2,2.8,1.7c-2.6-3.6-2.8-6.5-2.8-10.9
				C197.1,153.6,196.6,152.8,196.2,152z"/>
			<path class="st7" d="M214.8,154.5c0,0,1.9,6.8,2.9,9c2.5,3.9,2,5.4-1.4,8.7c2.6-6.2-1.2-7-1.7-11.3
				C214.5,158.9,214.8,154.5,214.8,154.5z"/>
			<path class="st7" d="M217.6,153.1c0.6,5.3,3.6,12.7,3.4,17.7c-0.5,5.6,2.9,10.4,5,15.5c0.2-0.3-2.5-10.1-2.5-13
				c3.4,5.3,12.1,17.5,4,22.3c1.5,0.9,3.9,1.4,5-1.1c5.6-13.3-5.6-27.1-12.7-37.2c-0.5-1.6-0.9-3.1-1.4-4.8
				C218,152.8,217.9,153,217.6,153.1z"/>
			<path class="st7" d="M219.9,173.3c0,0-0.9,0.2-2.6,1.6c-1.6,1.1-2,2.8-2,2.8l1.9-1.1l2.6-2L219.9,173.3z"/>
		</g>
		<path class="st11" d="M186.1,80.7c4.7,8.5-0.5,23.7-1.9,32.7l4.3,0.6c2.5-13.2,4.8-21.7,1.1-34.6L186.1,80.7z"/>
		<path class="st11" d="M211.5,115.3c0,0,8.1-18.9,8.1-28.5c3.9-9.6-9.6-10.1-19.2-11.6c-7.3-3.6-7.6-5.4-10.9-8.7
			c2.3,1.7,4.8,3.3,7.1,5c0-1.9,0-3.9,0-6c1.9,6,3.3,9,10.5,9c3.1,0,14.3,3.1,15,3.3c1.4-11,6-19.7,5.3-30.2
			c-1.1-8.2-14.3-13.3-20.9-16.4c1.4,0,2.6,0,4,0c7.6,3.7,18.9,6.8,18.9,17.4c0.6,14.1-7,26.4-7.6,44.5c-0.8,8.2-6.8,23.1-6.8,23.1
			C213.8,115.7,212.8,115.4,211.5,115.3z"/>
		<path class="st11" d="M194.1,9.2c10.7-1.9,30.9-2.6,32.4,12.1c0.5,3.9-0.6,20-0.6,20c-0.6-0.6-1.4-1.4-2-2c0,0,2.9-16.6-0.5-22
			C217.9,7.8,203.4,9.2,194.1,9.2z"/>
		<path class="st11" d="M211.2,31.4c-9.5-4.3-15.2-5.9-25.7-4.8c-0.9,0.6-1.9,1.4-2.9,1.9c1.2-0.3,2.6-0.5,3.9-0.9
			c0.2,1.1,0.5,2.3,0.6,3.4c0.3-0.9,0.8-1.9,1.2-2.8c0.9-0.2,1.7-0.2,2.8-0.5c-0.8,1.2-1.1,2.2-1.6,3.1c1.7,0,0.6,0,1.9,0.8
			c0-2,1.1-2.6,2.2-4c1.4,0.2,2.6,0.5,4,0.5c-0.9,1.4-1.7,2.8-2.5,4c1.2-1.1,2.5-2.2,3.9-3.4c-0.6,1.4-1.2,2.8-1.9,4.3
			c0.5,0,0.9,0.2,1.6,0.3c0.6-1.2,1.2-2.8,1.9-4.2C204.8,30.3,207.2,31.7,211.2,31.4z"/>
		<path class="st11" d="M204.7,8.3l-11,0.8l-4.3,2.6l-1.1,1.2h2.2l2.9-2.2v2.8h1.1l0.9-2.8l2.6-0.6v2.6l2.2,0.2V9.7l2.9,2.8l2.5,0.5
			l-3.3-3.9h4.7L204.7,8.3z"/>
		<path class="st11" d="M182.7,55.6c0,0-0.2,2.2,0.5,3.4c0.5,1.2,3.4,5.6,4.3,6.7c0.8,1.2,7.9,6.4,7.9,6.4l-1.4-2l-4.2-3.4l4-4
			l-4.5,2.6c0,0-1.2-0.2-0.5-0.9c0.8-0.9,3.1-2.8,3.1-2.8l-1.7-0.6c0,0-0.5,1.5-0.9,2c-0.5,0.5-1.9,0.6-1.9,0.6L186,62l2.3-2.6
			l-1.1-0.5l-1.7,1.9c0,0-1.6-0.8-1.6-2.2s0-2.9,0-2.9L182.7,55.6z"/>
		<path class="st13" d="M211.8,117.9c-9.5-1.6-15.4,1.2-19.8,9.6c0.2,1.7,0.2,3.1,0.5,4.7C196.8,122.6,202.2,120.7,211.8,117.9z"/>
		<path class="st13" d="M186.9,127.4c0,0,1.2,13.6,2.3,16.6c2,5.3,1.2,5.6-2,9.1c2.2,1.4,3.3,2.8,6-0.6
			C191,144.7,190.7,134.4,186.9,127.4z"/>
		<path class="st13" d="M199.3,194.4l2.2,29.5h3.1l-1.6-28.8L199.3,194.4z"/>
		<path class="st13" d="M202.4,229.9l-0.2,8.1l3.1,2.9l-0.8-6c0,0,1.7,2.3,2.9,3.6c1.1,1.2,4.5,2.3,4.5,2.3s-5-4.5-5.7-5.9
			c-0.5-1.4-1.1-5.1-1.1-5.1L202.4,229.9z"/>
		<path class="st13" d="M203.8,248.6c-0.5,9.9,6.5,17.5,13.8,23.3c-3.4-4-9.9-11-11-15.7C205.8,253.3,203.8,248.6,203.8,248.6z"/>
		<path class="st13" d="M203,267.3l0.2-3.4l1.2-0.6l1.2,2.3L203,267.3z"/>
		<path class="st13" d="M203.3,270.7l0.3,16.3l3.4-7.8l-0.8-11.5L203.3,270.7z"/>
		<path class="st13" d="M194.6,324.8c5.1-7.4,11.2-21.2,12.4-29.9C201.7,303.1,197.9,315.5,194.6,324.8z"/>
		<path class="st13" d="M218.8,315.2c2.8,11.2,5.4,22.6,5.7,34.1c3.9,0.6,4.7,7.6,5.3,10.9C228.3,347.4,225.5,325.9,218.8,315.2z"/>
		<path class="st13" d="M183.6,125.4c0,0-4-4-6.2-4c-8.7,0-17.4,11.9-22.3,17.7C167.8,127.5,175.2,121,183.6,125.4z"/>
		<path class="st5" d="M210,142.4c0,0-0.6-2.2-1.7-2.8c-1.2-0.5-2.5-0.3-2.6,2.3c-0.5,2.5,0.6,7.1,0.6,9c0,1.6,0.5,5.4,0.5,5.4
			s1.2-1.9,1.2-3.1c0-1.2-1.7-8.2-1.2-9.9c0.5-1.9,0.9-2.8,1.7-2.3C208.9,141.6,210,142.4,210,142.4z"/>
		<path class="st5" d="M213.5,158.2c0,0,2.5-8.1,3.4-9.1c0.9-1.2,3.3-2.9,5.9-3.3c2.6-0.2,4-0.5,6,0.2c2,0.6,6,3.6,6,3.6
			s-4.3-2.9-7.4-2.9c-2.8,0-6.8,0.8-8.1,1.7c-1.1,0.9-4.3,7.6-4.3,7.6L213.5,158.2z"/>
		<path class="st14" d="M198.5,145.7c0.9,3.9-0.6,8.5,3.9,9.3c0,0,2.5-1.4,1.4-5.7c-2-7.3-0.6-24.3,9.3-10.9
			C210.1,123.5,194.8,133.7,198.5,145.7z"/>
		<path class="st14" d="M207.9,145.1c5,2.8,3.1,7.9,2.2,12.6c0.5,0.3,1.1,0.6,1.7,0.8c3.3-11.3,5.3-15,18.8-13.8
			c-6.5-2.6-10.7-2-16.4,1.4c-1.9,1.4-5.3-1.9-6.5-2.8C207.6,143.8,207.9,144.4,207.9,145.1z"/>
		<path class="st14" d="M185.9,146.4c-11.2,1.9-20.2,6.5-26.2,16.7c4.5-5.1,13.5-13.5,26.4-15.4
			C185.9,147.4,185.9,146.9,185.9,146.4z"/>
		<path class="st14" d="M221.1,115.9c16.3-4.3,31.9,7.3,38.1,18.5C244.7,122.3,245.5,117.3,221.1,115.9z"/>
		<path class="st12" d="M199.7,226.2c3.1,0.2,6.4,0.3,9.2-1.1C208.6,228.9,201.7,227.2,199.7,226.2z"/>
		<path class="st14" d="M211.8,197.8c0.2,14,0.2,27.8,0.3,41.6c1.4,0.5,2.9,0.9,4.5,1.4c-0.5-4.8-0.6-10.5-1.4-15.2
			c1.9,3.9,4,8.4,6.4,11.9c-1.6-4-3.3-8.4-4.5-12.4c2.8,3.1,4.8,4.7,8.5,6.7c-12.6-10.2-10.4-19.2-10.9-33.8
			C213.8,197.9,212.8,197.9,211.8,197.8z"/>
		<path class="st12" d="M212.4,244v4l2.8,0.5v-4L212.4,244z"/>
		<path class="st12" d="M212.8,251.6c0,4.7,0,9.3,0,14.1c1.1,0.9,2,2,3.1,3.1c0,0-0.6-9-0.6-11.2
			C215.2,254.7,215.7,252.7,212.8,251.6z"/>
		<path class="st12" d="M217.7,261.4c0.6,4.3,8.7,9.8,12.3,12.4c0.2,0.6,0.5,1.2,0.8,1.9c0-0.6,0.2-1.4,0.2-2.2
			c0.8,0.5,1.4,0.8,2.3,1.1c-0.3-0.5-0.5-0.8-0.5-1.1c0.9-0.5,1.9-0.6,2.9-0.9c0,0-4.2-0.2-6-0.5
			C225.9,271.1,220.2,264.3,217.7,261.4z"/>
		<path class="st12" d="M198.3,300.3c5.4-7.1,17.8-19.1,16.3-28.7c-0.9-0.9-1.9-1.9-2.8-2.8C209.7,280.3,203.8,289.3,198.3,300.3z"
			/>
		<path class="st14" d="M234.3,332.1c-0.2-3.6,0.8-7.1-0.6-12.3c2.6,4.3,4.2,6,8.7,9.9c-10.5-16.6-15.4-26.4-21.7-43.6
			c-0.9-2.8-1.2-9.1-1.2-9.1C213.2,288,231,307.9,234.3,332.1z"/>
		<path class="st15" d="M206.7,108.6h67.1"/>
		<path class="st15" d="M200.5,138.4h115.7"/>
		<path class="st15" d="M247.8,168h68.4"/>
		<path class="st15" d="M189,138.4H84.2"/>
		<path class="st15" d="M202.4,214.8H84.2"/>
		<path class="st15" d="M284.9,214.8h31.3"/>
		<path class="st15" d="M202.4,226.8l61.7,19.1h52.1"/>
		<path class="st15" d="M234.6,409.5h39.2"/>
		<path class="st15" d="M163.7,409.5H84.1"/>
		<path class="st16" d="M279.4,105.4c0.2-0.3,0.2-0.8,1.1-0.8c0.8,0,1.1,0.3,1.1,0.6c0,0.5-0.2,0.6-0.3,0.6l-1.4,0.2
			c-1.2,0.2-1.2,1.1-1.2,1.4c0,0.8,0.5,1.4,1.4,1.4s1.2-0.5,1.7-0.8c0,0.3,0,0.8,0.6,0.8c0.2,0,0.3-0.2,0.5-0.2V108c0,0-0.2,0-0.3,0
			c-0.2,0-0.2,0-0.2-0.2v-2.6c0-1.1-1.4-1.2-1.7-1.2c-1.1,0-1.9,0.3-1.9,1.4L279.4,105.4 M281.6,107.1c0,0.6-0.6,1.1-1.4,1.1
			c-0.6,0-0.8-0.5-0.8-0.9c0-0.5,0.6-0.6,0.9-0.6c0.9-0.2,1.1-0.3,1.2-0.3L281.6,107.1 M285.3,107.7h-0.9v0.9h0.9V107.7
			 M292.6,105.7c0-0.9-0.5-1.7-1.7-1.7c-1.4,0-2.2,1.1-2.2,2.5c0,1.2,0.8,2.3,2,2.3c1.4,0,1.9-1.1,1.9-1.7h-0.8
			c-0.2,0.6-0.6,0.9-1.1,0.9c-1.1,0-1.2-0.9-1.2-1.7c0-0.8,0.3-1.7,1.4-1.7c0.6,0,0.9,0.3,0.9,1.1L292.6,105.7 M294.6,105.4
			c0-0.3,0.2-0.8,0.9-0.8c0.8,0,1.1,0.3,1.1,0.6c0,0.5-0.2,0.6-0.3,0.6l-1.4,0.2c-1.1,0.2-1.2,1.1-1.2,1.4c0,0.8,0.6,1.4,1.4,1.4
			c0.9,0,1.2-0.5,1.7-0.8c0,0.3,0,0.8,0.6,0.8c0.3,0,0.3-0.2,0.5-0.2V108h-0.2c-0.3,0-0.3,0-0.3-0.2v-2.6c0-1.1-1.4-1.2-1.7-1.2
			c-1.1,0-1.9,0.3-1.9,1.4L294.6,105.4 M296.6,107.1c0,0.6-0.6,1.1-1.4,1.1c-0.5,0-0.8-0.5-0.8-0.9c0-0.5,0.6-0.6,0.9-0.6
			c0.9-0.2,1.1-0.3,1.2-0.3L296.6,107.1 M300.2,106c0-0.8,0.3-1.2,1.1-1.2h0.3V104c0,0-0.2,0-0.3,0c-0.5,0-0.9,0.3-1.2,0.8v-0.6
			h-0.6v4.5h0.8L300.2,106 M302.4,106.3c0,1.2,0.6,2.5,2.2,2.5c1.4,0,2-1.2,2-2.5c0-1.1-0.6-2.3-2-2.3
			C303,104,302.4,105.2,302.4,106.3 M303.2,106.3c0-0.6,0.3-1.7,1.4-1.7s1.2,1.1,1.2,1.7s-0.2,1.7-1.2,1.7
			C303.5,108,303.2,106.9,303.2,106.3 M309.7,104.7v-0.6h-0.8v-1.4h-0.6v1.4h-0.8v0.6h0.8v2.9c0,0.5,0.2,1.1,0.8,1.1
			c0.2,0,0.3-0.2,0.6-0.2v-0.6h-0.3c-0.2,0-0.5,0-0.5-0.3v-2.9H309.7 M311.7,104.1h-0.8v4.5h0.8V104.1 M311.7,103.2v-0.8h-0.8v0.8
			H311.7 M316.7,105.4c0-0.2-0.2-1.4-1.7-1.4c-0.9,0-1.7,0.3-1.7,1.4c0,0.6,0.5,0.9,0.9,1.1l0.9,0.3c0.6,0,0.9,0.3,0.9,0.6
			c0,0.5-0.5,0.6-0.9,0.6c-1.2,0-1.2-0.5-1.2-0.9h-0.8c0,0.6,0.2,1.7,2,1.7c0.9,0,1.7-0.6,1.7-1.6c0-0.6-0.3-0.9-1.2-1.2l-0.8-0.2
			c-0.6-0.2-0.9-0.2-0.9-0.6c0-0.6,0.8-0.6,0.9-0.6c1.1,0,1.1,0.5,1.1,0.8L316.7,105.4 M324.3,105.7c0-0.9-0.5-1.7-1.7-1.7
			c-1.5,0-2.2,1.1-2.2,2.5c0,1.2,0.8,2.3,2,2.3c1.4,0,1.9-1.1,1.9-1.7h-0.8c-0.2,0.6-0.6,0.9-1.1,0.9c-1.1,0-1.2-0.9-1.2-1.7
			c0-0.8,0.3-1.7,1.2-1.7c0.6,0,1.1,0.3,1.1,1.1L324.3,105.7 M325.2,106.3c0,1.2,0.8,2.5,2.2,2.5c1.4,0,2.2-1.2,2.2-2.5
			c0-1.1-0.8-2.3-2.2-2.3S325.2,105.2,325.2,106.3 M326,106.3c0-0.6,0.3-1.7,1.4-1.7c1.2,0,1.4,1.1,1.4,1.7s-0.2,1.7-1.4,1.7
			C326.3,108,326,106.9,326,106.3 M330.8,108.6h0.8v-2.5c0-1.2,0.9-1.6,1.2-1.6c0.6,0,0.8,0.5,0.8,0.8v3.3h0.8v-2.8
			c0-0.6,0.3-1.2,1.1-1.2c0.6,0,0.8,0.5,0.8,1.1v2.9h0.8v-3.3c0-1.2-0.9-1.4-1.4-1.4c-0.6,0-1.1,0.3-1.4,0.6
			c-0.2-0.2-0.3-0.6-1.2-0.6c-0.8,0-1.2,0.5-1.4,0.8v-0.6h-0.8L330.8,108.6 M338.5,108.6h0.8v-2.5c0-1.2,0.8-1.6,1.2-1.6
			c0.6,0,0.8,0.5,0.8,0.8v3.3h0.8v-2.8c0-0.6,0.5-1.2,0.9-1.2c0.6,0,0.8,0.5,0.8,1.1v2.9h0.9v-3.3c0-1.2-0.9-1.4-1.4-1.4
			c-0.8,0-1.1,0.3-1.4,0.6c-0.2-0.2-0.5-0.6-1.2-0.6c-0.8,0-1.2,0.5-1.4,0.8v-0.6h-0.8L338.5,108.6 M349.8,108.6v-4.5h-0.7v2.5
			c0,0.6-0.2,1.4-1.2,1.4c-0.5,0-0.8-0.2-0.8-0.9v-2.9h-0.8v3.3c0,0.9,0.8,1.4,1.4,1.4c0.8,0,1.2-0.3,1.6-0.8v0.6L349.8,108.6
			 M355.3,105.4c0-1.1-0.9-1.4-1.6-1.4c-0.9,0-1.2,0.5-1.4,0.8v-0.6h-0.8v4.5h0.8v-2.5c0-1.2,0.8-1.6,1.1-1.6c0.9,0,1.1,0.3,1.1,1.2
			v2.8h0.8V105.4 M357.6,104.1h-0.8v4.5h0.8V104.1 M357.6,103.2v-0.8h-0.8v0.8H357.6 M362.6,105.4c0-0.2,0-1.4-1.5-1.4
			c-0.9,0-1.9,0.3-1.9,1.4c0,0.6,0.5,0.9,1.1,1.1l0.9,0.3c0.6,0,0.9,0.3,0.9,0.6c0,0.5-0.6,0.6-1.1,0.6c-1.1,0-1.1-0.5-1.1-0.9H359
			c0,0.6,0.2,1.7,2,1.7c1.1,0,1.9-0.6,1.9-1.6c0-0.6-0.5-0.9-1.4-1.2l-0.8-0.2c-0.6-0.2-0.8-0.2-0.8-0.6c0-0.6,0.6-0.6,0.9-0.6
			c0.9,0,1.1,0.5,1.1,0.8L362.6,105.4"/>
		<path class="st16" d="M322.5,135.1c0-0.3,0.2-0.9,1.1-0.9c0.6,0,1.1,0.3,1.1,0.8s-0.3,0.6-0.5,0.6H323c-1.2,0.3-1.4,1.1-1.4,1.6
			c0,0.8,0.6,1.4,1.4,1.4c0.9,0,1.4-0.5,1.7-0.9c0,0.5,0.2,0.9,0.8,0.9c0.2,0,0.3-0.2,0.5-0.2v-0.6c-0.2,0-0.2,0-0.3,0
			c-0.2,0-0.3-0.2-0.3-0.2v-2.8c0-1.1-1.2-1.1-1.6-1.1c-1.2,0-1.9,0.3-1.9,1.4H322.5 M324.7,136.7c0,0.6-0.8,1.2-1.4,1.2
			s-0.9-0.5-0.9-0.9c0-0.5,0.6-0.8,1.1-0.8c0.9,0,1.1-0.2,1.2-0.2L324.7,136.7 M328.1,135.6c0-0.6,0.5-1.2,1.1-1.2h0.5v-0.7
			c-0.2,0-0.2,0-0.3,0c-0.6,0-0.9,0.3-1.2,0.8v-0.8h-0.8v4.7h0.8L328.1,135.6 M334.2,135.3c0-0.8-0.5-1.6-1.7-1.6
			c-1.4,0-2.2,1.1-2.2,2.5c0,1.2,0.8,2.3,2.2,2.3c1.2,0,1.7-1.1,1.7-1.9h-0.6c-0.2,0.8-0.6,1.1-1.1,1.1c-1.2,0-1.2-1.1-1.2-1.7
			c0-0.8,0.3-1.7,1.2-1.7c0.6,0,0.9,0.3,1.1,0.9L334.2,135.3 M339.1,138.4v-4.7h-0.8v2.5c0,0.8-0.2,1.6-1.1,1.6
			c-0.6,0-0.9-0.2-0.9-1.1v-3h-0.8v3.3c0,1.1,0.8,1.6,1.4,1.6c0.8,0,1.2-0.3,1.5-0.9v0.8L339.1,138.4 M344.1,135.1
			c0-0.3,0-1.4-1.5-1.4c-0.9,0-1.9,0.3-1.9,1.4c0,0.6,0.5,0.9,1.1,1.1l0.9,0.3c0.6,0,0.9,0.2,0.9,0.5c0,0.6-0.6,0.8-1.1,0.8
			c-1.1,0-1.2-0.6-1.2-0.9h-0.8c0,0.6,0.2,1.7,2,1.7c1.1,0,1.7-0.6,1.7-1.6c0-0.8-0.3-1.1-1.2-1.2l-0.8-0.2
			c-0.6-0.3-0.8-0.3-0.8-0.8s0.6-0.6,0.9-0.6c0.9,0,0.9,0.6,0.9,0.9H344.1 M348.9,135.1c0-0.3,0-0.9,0.9-0.9c0.8,0,1.1,0.3,1.1,0.8
			s-0.2,0.6-0.3,0.6h-1.4c-1.2,0.3-1.2,1.1-1.2,1.6c0,0.8,0.5,1.4,1.4,1.4s1.2-0.5,1.6-0.9c0,0.5,0.3,0.9,0.8,0.9
			c0.3,0,0.3-0.2,0.5-0.2v-0.6c-0.2,0-0.2,0-0.2,0c-0.3,0-0.3-0.2-0.3-0.2v-2.8c0-1.1-1.4-1.1-1.7-1.1c-1.1,0-1.9,0.3-1.9,1.4H348.9
			 M350.9,136.7c0,0.6-0.6,1.2-1.4,1.2c-0.6,0-0.9-0.5-0.9-0.9c0-0.5,0.8-0.8,1.1-0.8c0.9,0,1.1-0.2,1.2-0.2L350.9,136.7
			 M353.3,136.1c0,1.1,0.6,2.5,2.2,2.5c1.4,0,2-1.4,2-2.5c0-1.2-0.6-2.3-2-2.3C353.9,133.7,353.3,134.8,353.3,136.1 M354,136.1
			c0-0.8,0.3-1.9,1.4-1.9s1.2,1.1,1.2,1.9c0,0.6-0.2,1.7-1.2,1.7S354,136.7,354,136.1 M359.8,135.6c0-0.6,0.3-1.2,1.1-1.2h0.3v-0.7
			H361c-0.6,0-0.9,0.3-1.4,0.8v-0.8H359v4.7h0.8L359.8,135.6 M364.3,134.4v-0.7h-0.8v-1.2h-0.6v1.2h-0.8v0.6h0.8v3.1
			c0,0.5,0.2,1.1,0.9,1.1c0,0,0.2-0.2,0.5-0.2v-0.8H364c-0.2,0-0.5,0-0.5-0.3v-2.9L364.3,134.4 M366.3,135.1c0-0.3,0-0.9,0.9-0.9
			c0.8,0,1.1,0.3,1.1,0.8s-0.2,0.6-0.3,0.6h-1.4c-1.2,0.3-1.2,1.1-1.2,1.6c0,0.8,0.5,1.4,1.4,1.4s1.2-0.5,1.5-0.9
			c0,0.5,0.3,0.9,0.8,0.9c0.3,0,0.3-0.2,0.5-0.2v-0.6c-0.2,0-0.2,0-0.2,0c-0.3,0-0.3-0.2-0.3-0.2v-2.8c0-1.1-1.4-1.1-1.7-1.1
			c-1.1,0-1.9,0.3-1.9,1.4H366.3 M368.3,136.7c0,0.6-0.6,1.2-1.4,1.2c-0.6,0-0.9-0.5-0.9-0.9c0-0.5,0.8-0.8,1.1-0.8
			c0.9,0,1.1-0.2,1.2-0.2L368.3,136.7 M374,136.8c-0.2,0.3-0.5,0.9-1.2,0.9c-0.8,0-1.2-0.6-1.2-1.6h3.3c0-1.6-0.6-2.5-2-2.5
			c-1.5,0-2.2,1.1-2.2,2.5c0,1.2,0.8,2.3,2,2.3c0.8,0,1.1-0.3,1.2-0.5c0.6-0.3,0.8-0.9,0.8-1.2L374,136.8 M371.5,135.6
			c0-0.6,0.5-1.2,1.2-1.2c0.8,0,1.2,0.6,1.2,1.2H371.5"/>
		<path class="st16" d="M323.5,167.2l-1.1-3.7h-0.9l1.6,4.5h0.9l1.7-4.5h-0.8L323.5,167.2 M328.3,167.2l-1.1-3.7h-0.9l1.7,4.5h0.8
			l1.7-4.5h-0.8L328.3,167.2 M332,167.1h-0.9v0.9h0.9V167.1 M336.5,166c0-0.8,0.2-1.9,1.2-1.9s1.1,1.1,1.1,1.6
			c0,1.1-0.3,1.9-1.1,1.9C337.3,167.5,336.5,167.2,336.5,166 M335.7,169.9h0.8v-2.3c0.2,0.3,0.6,0.8,1.2,0.8c1.6,0,2-1.6,2-2.6
			c0-1.2-0.8-2.3-2-2.3c-0.8,0-1.1,0.6-1.2,0.8v-0.6h-0.8V169.9 M344.7,168v-4.5h-0.6v2.5c0,0.6-0.3,1.6-1.4,1.6
			c-0.5,0-0.8-0.2-0.8-1.1v-2.9h-0.8v3.3c0,1.1,0.8,1.6,1.6,1.6c0.6,0,1.1-0.5,1.4-0.9v0.6h0.6 M347.2,161.8h-0.8v6.2h0.8V161.8
			 M348.9,168h0.8v-2.5c0-1.1,0.8-1.4,1.2-1.4s0.6,0.3,0.6,0.8v3.1h0.8v-2.8c0-0.6,0.5-1.1,1.1-1.1s0.9,0.3,0.9,0.9v2.9h0.8v-3.1
			c0-1.2-0.9-1.6-1.4-1.6c-0.8,0-1.2,0.3-1.4,0.8c-0.3-0.2-0.5-0.8-1.2-0.8c-0.8,0-1.2,0.6-1.4,0.8v-0.6h-0.8V168 M356.4,165.7
			c0,1.2,0.8,2.6,2.2,2.6c1.4,0,2-1.4,2-2.6c0-1.1-0.6-2.3-2-2.3C357.1,163.4,356.4,164.6,356.4,165.7 M357.1,165.7
			c0-0.6,0.2-1.7,1.4-1.7c1.1,0,1.4,1.1,1.4,1.7c0,0.8-0.3,1.9-1.4,1.9C357.3,167.5,357.1,166.5,357.1,165.7 M365.7,164.9
			c0-1.2-0.8-1.6-1.6-1.6c-0.8,0-1.2,0.6-1.4,0.8v-0.6h-0.8v4.5h0.8v-2.5c0-1.1,0.8-1.4,1.2-1.4c0.6,0,0.9,0.3,0.9,1.1v2.8h0.8v-3.1
			 M368,164.7c0.2-0.3,0.2-0.8,1.1-0.8c0.6,0,1.1,0.3,1.1,0.8s-0.3,0.5-0.5,0.5l-1.2,0.2c-1.2,0.3-1.2,1.1-1.2,1.6
			c0,0.6,0.5,1.4,1.4,1.4c0.8,0,1.2-0.5,1.5-0.9c0,0.5,0.2,0.8,0.8,0.8c0.2,0,0.3,0,0.3-0.2v-0.5c0,0,0,0-0.2,0s-0.3-0.2-0.3-0.2
			v-2.8c0-1.1-1.2-1.2-1.5-1.2c-1.1,0-1.9,0.5-1.9,1.4L368,164.7 M370.2,166.5c0,0.6-0.8,1.1-1.4,1.1s-0.9-0.3-0.9-0.8
			c0-0.6,0.8-0.8,0.9-0.8c1.1,0,1.1-0.2,1.4-0.3V166.5 M373.4,161.8h-0.8v6.2h0.8V161.8 M375.9,163.5h-0.8v4.5h0.8V163.5
			 M375.9,162.7v-0.9h-0.8v0.9H375.9 M380.9,164.7c0-0.2-0.2-1.4-1.7-1.4c-0.9,0-1.7,0.5-1.7,1.4c0,0.8,0.3,0.9,0.9,1.2l0.9,0.2
			c0.6,0.2,0.9,0.3,0.9,0.6c0,0.6-0.5,0.8-1.1,0.8c-1.1,0-1.1-0.6-1.1-0.9h-0.9c0,0.5,0.3,1.7,2,1.7c1.1,0,1.9-0.8,1.9-1.7
			c0-0.6-0.3-0.9-1.2-1.1l-0.8-0.3c-0.6-0.2-0.9-0.2-0.9-0.6s0.8-0.6,0.9-0.6c0.9,0,1.1,0.5,1.1,0.8L380.9,164.7"/>
		<path class="st16" d="M322.5,211.7c0-0.5,0.2-0.9,1.1-0.9c0.6,0,1.1,0.3,1.1,0.8s-0.3,0.5-0.5,0.5l-1.2,0.2
			c-1.2,0.2-1.4,1.1-1.4,1.6c0,0.6,0.6,1.4,1.4,1.4c0.9,0,1.4-0.5,1.7-0.9c0,0.5,0.2,0.8,0.8,0.8c0.2,0,0.3-0.2,0.5-0.2v-0.5
			c-0.2,0-0.2,0-0.3,0c-0.2,0-0.3-0.2-0.3-0.3v-2.6c0-1.1-1.2-1.2-1.6-1.2c-1.2,0-1.9,0.5-1.9,1.6L322.5,211.7 M324.7,213.3
			c0,0.6-0.8,1.1-1.4,1.1s-0.9-0.3-0.9-0.9c0-0.5,0.6-0.6,1.1-0.6c0.9-0.2,1.1-0.2,1.2-0.3L324.7,213.3 M328.3,213.9h-0.9v0.9h0.9
			V213.9 M332.8,214.8v-0.5c0.2,0.2,0.5,0.8,1.2,0.8c1.6,0,2-1.7,2-2.8s-0.6-2.2-2-2.2c-0.5,0-0.9,0.2-1.1,0.8h-0.2v-2.3h-0.8v6.2
			H332.8 M335.1,212.5c0,0.9-0.2,1.9-1.1,1.9c-0.5,0-1.2-0.3-1.2-1.6c0-0.8,0.2-1.9,1.2-1.9C335.1,211,335.1,212,335.1,212.5
			 M338.4,212.2c0-0.6,0.5-1.2,1.1-1.2h0.3v-0.8c0,0,0,0-0.2,0c-0.6,0-1.1,0.3-1.2,0.8v-0.6h-0.8v4.5h0.8L338.4,212.2 M341.5,211.7
			c0.2-0.5,0.2-0.9,1.1-0.9c0.6,0,1.1,0.3,1.1,0.8s-0.3,0.5-0.5,0.5l-1.2,0.2c-1.2,0.2-1.4,1.1-1.4,1.6c0,0.6,0.6,1.4,1.4,1.4
			c0.9,0,1.4-0.5,1.7-0.9c0,0.5,0.2,0.8,0.8,0.8c0.2,0,0.3-0.2,0.3-0.2v-0.5c0,0,0,0-0.2,0s-0.3-0.2-0.3-0.3v-2.6
			c0-1.1-1.2-1.2-1.5-1.2c-1.1,0-1.9,0.5-1.9,1.6L341.5,211.7 M343.6,213.3c0,0.6-0.8,1.1-1.4,1.1s-0.9-0.3-0.9-0.9
			c0-0.5,0.6-0.6,0.9-0.6c1.1-0.2,1.1-0.2,1.4-0.3V213.3 M349.8,211.9c-0.2-0.9-0.6-1.7-1.9-1.7c-1.4,0-2,1.1-2,2.5s0.6,2.5,1.9,2.5
			c1.4,0,1.9-1.2,2-1.9h-0.9c0,0.6-0.5,1.1-1.1,1.1c-0.9,0-1.1-1.1-1.1-1.9c0-0.6,0.3-1.6,1.2-1.6c0.6,0,0.9,0.3,0.9,0.9
			L349.8,211.9 M354.6,211.7c0-1.2-0.8-1.6-1.5-1.6c-0.8,0-1.1,0.5-1.4,0.8v-2.3h-0.8v6.2h0.8v-2.5c0-1.1,0.6-1.4,1.2-1.4
			c0.8,0,0.9,0.3,0.9,0.9v2.9h0.8V211.7 M357.1,210.3h-0.8v4.5h0.8V210.3 M357.1,209.6v-0.9h-0.8v0.9H357.1 M359.5,211.7
			c0.2-0.5,0.2-0.9,1.1-0.9c0.6,0,0.9,0.3,0.9,0.8s-0.2,0.5-0.3,0.5l-1.2,0.2c-1.2,0.2-1.4,1.1-1.4,1.6c0,0.6,0.6,1.4,1.4,1.4
			c0.9,0,1.2-0.5,1.7-0.9c0,0.5,0.2,0.8,0.8,0.8c0.2,0,0.2-0.2,0.5-0.2v-0.5c-0.2,0-0.3,0-0.3,0c-0.2,0-0.2-0.2-0.2-0.3v-2.6
			c0-1.1-1.4-1.2-1.7-1.2c-1.1,0-2,0.5-2,1.6L359.5,211.7 M361.5,213.3c0,0.6-0.6,1.1-1.4,1.1c-0.5,0-0.8-0.3-0.8-0.9
			c0-0.5,0.6-0.6,0.9-0.6c0.9-0.2,1.2-0.2,1.2-0.3L361.5,213.3 M364.9,208.6h-0.8v6.2h0.8V208.6 M367.4,210.3h-0.8v4.5h0.8V210.3
			 M367.4,209.6v-0.9h-0.8v0.9H367.4 M372.3,211.6c0-0.2-0.2-1.4-1.7-1.4c-0.9,0-1.9,0.5-1.9,1.6c0,0.6,0.5,0.8,1.1,0.9l0.9,0.3
			c0.6,0.2,0.9,0.3,0.9,0.6c0,0.5-0.5,0.8-1.1,0.8c-0.9,0-1.2-0.6-1.2-0.9h-0.6c0,0.5,0,1.7,1.9,1.7c1.1,0,1.9-0.8,1.9-1.7
			c0-0.6-0.3-0.9-1.2-1.1l-0.8-0.3c-0.6-0.2-0.8-0.2-0.8-0.6s0.5-0.6,0.8-0.6c1.1,0,1.1,0.5,1.1,0.8L372.3,211.6"/>
		<path class="st16" d="M322.5,242.8c0-0.5,0.2-0.9,1.1-0.9c0.6,0,1.1,0.3,1.1,0.8s-0.3,0.5-0.5,0.5l-1.2,0.2
			c-1.2,0.3-1.4,1.1-1.4,1.4c0,0.9,0.6,1.4,1.4,1.4c0.9,0,1.4-0.5,1.7-0.8c0,0.3,0.2,0.8,0.8,0.8c0.2,0,0.3,0,0.5-0.2v-0.5
			c-0.2,0-0.2,0-0.3,0c-0.2,0-0.3-0.2-0.3-0.3v-2.6c0-1.1-1.2-1.2-1.6-1.2c-1.2,0-1.9,0.5-1.9,1.6L322.5,242.8 M324.7,244.3
			c0,0.6-0.8,1.1-1.4,1.1s-0.9-0.3-0.9-0.8c0-0.6,0.6-0.8,1.1-0.8c0.9-0.2,1.1-0.2,1.2-0.3L324.7,244.3 M328.3,244.9h-0.9v0.9h0.9
			V244.9 M335.9,242.8c0-1.2-0.9-1.6-1.7-1.6c-0.6,0-1.1,0.5-1.2,0.6v-2.2h-0.8v6.2h0.8v-2.5c0-1.1,0.6-1.6,1.1-1.6
			c0.9,0,0.9,0.5,0.9,1.1v2.9h0.9L335.9,242.8 M340.5,244.5c0,0.3-0.5,0.9-1.1,0.9c-0.9,0-1.4-0.6-1.4-1.5h3.3
			c0-1.6-0.6-2.6-1.9-2.6c-1.5,0-2.2,1.1-2.2,2.5s0.8,2.3,2,2.3c0.6,0,0.9-0.2,1.2-0.3c0.6-0.3,0.8-1.1,0.8-1.2L340.5,244.5
			 M338.1,243.2c0-0.6,0.5-1.4,1.2-1.4c0.9,0,1.2,0.8,1.2,1.4H338.1 M343.5,243.8c0-0.8,0.2-2,1.2-2c1.2,0,1.2,1.2,1.2,1.7
			c0,1.1-0.3,1.9-1.2,1.9C344.3,245.4,343.5,245.1,343.5,243.8 M342.7,247.9h0.8v-2.5h0.2c0,0.5,0.5,0.6,1.1,0.6c1.5,0,2-1.4,2-2.5
			c0-1.4-0.6-2.3-2-2.3c-0.6,0-1.1,0.5-1.2,0.8v-0.6h-0.8L342.7,247.9 M348.9,242.8c0-0.5,0-0.9,0.9-0.9c0.8,0,1.1,0.3,1.1,0.8
			s-0.2,0.5-0.3,0.5l-1.4,0.2c-1.2,0.3-1.2,1.1-1.2,1.4c0,0.9,0.5,1.4,1.4,1.4s1.2-0.5,1.6-0.8c0,0.3,0.3,0.8,0.8,0.8
			c0.3,0,0.3,0,0.5-0.2v-0.5c-0.2,0-0.2,0-0.2,0c-0.3,0-0.3-0.2-0.3-0.3v-2.6c0-1.1-1.4-1.2-1.7-1.2c-1.1,0-1.9,0.5-1.9,1.6
			L348.9,242.8 M350.9,244.3c0,0.6-0.6,1.1-1.4,1.1c-0.6,0-0.9-0.3-0.9-0.8c0-0.6,0.8-0.8,1.1-0.8c0.9-0.2,1.1-0.2,1.2-0.3
			L350.9,244.3 M355.1,242v-0.6h-0.6v-1.2h-0.8v1.2h-0.6v0.6h0.6v2.9c0,0.6,0.2,1.1,0.9,1.1c0,0,0.2,0,0.5-0.2v-0.6h-0.3
			c0,0-0.3,0-0.3-0.3V242H355.1 M357.1,241.4h-0.8v4.5h0.8V241.4 M357.1,240.6v-0.9h-0.8v0.9H357.1 M362.4,242.9
			c0-0.8-0.5-1.7-1.7-1.7c-1.4,0-2.2,1.1-2.2,2.5s0.8,2.3,2,2.3c1.4,0,1.9-1.1,1.9-1.7h-0.8c-0.2,0.6-0.5,1.1-1.1,1.1
			c-0.9,0-1.1-0.9-1.1-1.9c0-0.8,0.2-1.7,1.2-1.7c0.5,0,0.9,0.5,0.9,1.1L362.4,242.9 M364.4,242.8c0-0.5,0.2-0.9,1.1-0.9
			c0.6,0,0.9,0.3,0.9,0.8s-0.2,0.5-0.3,0.5l-1.2,0.2c-1.4,0.3-1.4,1.1-1.4,1.4c0,0.9,0.6,1.4,1.4,1.4c0.9,0,1.4-0.5,1.7-0.8
			c0,0.3,0.2,0.8,0.8,0.8c0.2,0,0.3,0,0.3-0.2v-0.5c0,0,0,0-0.2,0s-0.3-0.2-0.3-0.3v-2.6c0-1.1-1.2-1.2-1.7-1.2
			c-1.1,0-1.7,0.5-1.7,1.6L364.4,242.8 M366.4,244.3c0,0.6-0.6,1.1-1.4,1.1c-0.5,0-0.8-0.3-0.8-0.8c0-0.6,0.6-0.8,0.9-0.8
			c1.1-0.2,1.1-0.2,1.2-0.3L366.4,244.3 M325.5,253c-0.2-0.8-0.6-1.7-1.7-1.7c-1.4,0-2.2,1.1-2.2,2.5s0.8,2.3,2,2.3s1.7-1.1,1.9-1.7
			h-0.8c-0.2,0.6-0.5,0.9-1.1,0.9c-1.1,0-1.2-0.8-1.2-1.7c0-0.8,0.3-1.7,1.4-1.7c0.5,0,0.9,0.5,0.9,1.1L325.5,253 M326.4,253.6
			c0,1.2,0.8,2.5,2.2,2.5c1.6,0,2.2-1.2,2.2-2.5c0-1.1-0.6-2.3-2.2-2.3C327.2,251.3,326.4,252.5,326.4,253.6 M327.4,253.6
			c0-0.5,0.2-1.7,1.2-1.7s1.2,1.2,1.2,1.7c0,0.6-0.2,1.7-1.2,1.7S327.4,254.2,327.4,253.6 M332.2,255.9h0.8v-2.5
			c0-1.2,0.6-1.5,1.1-1.5c0.6,0,0.8,0.5,0.8,0.9v3.1h0.8v-2.8c0-0.6,0.5-1.2,1.1-1.2s0.8,0.5,0.8,1.2v2.8h0.8v-3.1
			c0-1.4-0.9-1.6-1.4-1.6c-0.8,0-0.9,0.3-1.4,0.6c-0.2-0.2-0.5-0.6-1.2-0.6c-0.8,0-1.2,0.5-1.2,0.8v-0.6h-0.8L332.2,255.9
			 M339.8,255.9h0.8v-2.5c0-1.2,0.8-1.5,1.2-1.5c0.6,0,0.8,0.5,0.8,0.9v3.1h0.8v-2.8c0-0.6,0.3-1.2,0.9-1.2c0.8,0,0.9,0.5,0.9,1.2
			v2.8h0.8v-3.1c0-1.4-0.9-1.6-1.4-1.6c-0.8,0-1.1,0.3-1.4,0.6c-0.2-0.2-0.5-0.6-1.2-0.6c-0.8,0-1.2,0.5-1.4,0.8v-0.6h-0.8
			L339.8,255.9 M351.2,255.9v-4.5h-0.9v2.5c0,0.6-0.3,1.4-1.2,1.4c-0.5,0-0.8-0.2-0.8-0.8v-3.1h-0.8v3.3c0,1.1,0.8,1.4,1.4,1.4
			c0.8,0,1.1-0.3,1.6-0.8v0.6H351.2 M356.5,252.8c0-1.2-0.8-1.6-1.5-1.6s-1.2,0.5-1.4,0.8v-0.6h-0.8v4.5h0.8v-2.5
			c0-1.2,0.8-1.5,1.2-1.5c0.8,0,0.9,0.5,0.9,1.2v2.8h0.8V252.8 M359,251.4h-0.8v4.5h0.8V251.4 M359,250.5v-0.8h-0.8v0.8H359
			 M364,252.7c0-0.2-0.2-1.4-1.9-1.4c-0.9,0-1.7,0.5-1.7,1.6c0,0.5,0.5,0.8,1.1,0.9l0.9,0.3c0.6,0.2,0.9,0.3,0.9,0.6
			c0,0.5-0.5,0.6-1.1,0.6c-1.1,0-1.2-0.5-1.2-0.8h-0.8c0,0.5,0.2,1.6,2,1.6c1.1,0,1.9-0.5,1.9-1.6c0-0.6-0.3-0.9-1.2-1.2l-0.8-0.1
			c-0.6,0-0.9-0.2-0.9-0.6c0-0.6,0.6-0.6,0.9-0.6c0.9,0,1.1,0.5,1.1,0.8L364,252.7"/>
		<path class="st16" d="M279.4,406.2c0.2-0.3,0.2-0.8,1.1-0.8c0.8,0,1.1,0.3,1.1,0.6c0,0.5-0.2,0.6-0.3,0.6l-1.4,0.2
			c-1.2,0.2-1.2,0.9-1.2,1.4c0,0.8,0.5,1.4,1.4,1.4s1.2-0.5,1.7-0.9c0,0.5,0,0.9,0.6,0.9c0.2,0,0.3-0.2,0.5-0.2v-0.6
			c0,0-0.2,0-0.3,0c-0.2,0-0.2-0.2-0.2-0.2v-2.8c0-1.1-1.4-1.1-1.7-1.1c-1.1,0-1.9,0.3-1.9,1.4L279.4,406.2 M281.6,407.8
			c0,0.8-0.6,1.2-1.4,1.2c-0.6,0-0.8-0.5-0.8-0.9c0-0.5,0.6-0.8,0.9-0.8c0.9,0,1.1-0.2,1.2-0.2L281.6,407.8 M285.3,408.5h-0.9v0.9
			h0.9V408.5 M290.8,405.6v-0.8H290v-0.5c0-0.5,0.2-0.6,0.5-0.6c0.2,0,0.2,0,0.3,0v-0.6c-0.2,0-0.3,0-0.3,0c-0.8,0-1.2,0.3-1.2,0.9
			v0.8h-0.6v0.8h0.6v3.9h0.8v-3.9L290.8,405.6 M294.8,407.9c0,0.3-0.5,0.9-1.2,0.9c-0.9,0-1.2-0.6-1.2-1.6h3.3c0-1.5-0.6-2.5-2-2.5
			s-2,1.1-2,2.5c0,1.2,0.6,2.3,2,2.3c0.8,0,0.9-0.3,1.2-0.5c0.5-0.3,0.6-0.9,0.8-1.2h-0.9 M292.3,406.8c0-0.8,0.6-1.4,1.2-1.4
			c0.9,0,1.2,0.6,1.2,1.4H292.3 M297,409.5h0.8v-2.6c0-1.1,0.8-1.4,1.2-1.4c0.6,0,0.8,0.5,0.8,0.8v3.3h0.8v-2.9
			c0-0.8,0.3-1.2,1.1-1.2c0.6,0,0.8,0.5,0.8,1.1v2.9h0.8v-3.3c0-1.2-0.9-1.4-1.4-1.4c-0.6,0-1.1,0.3-1.4,0.6
			c-0.2-0.2-0.5-0.6-1.2-0.6c-0.8,0-1.2,0.5-1.4,0.8v-0.8h-0.8L297,409.5 M304.4,407.1c0,1.1,0.8,2.5,2.2,2.5c1.4,0,2-1.4,2-2.5
			c0-1.2-0.6-2.3-2-2.3S304.4,405.9,304.4,407.1 M305.2,407.1c0-0.6,0.3-1.7,1.4-1.7c1.2,0,1.4,1.1,1.4,1.7s-0.2,1.7-1.4,1.7
			C305.5,408.8,305.2,407.8,305.2,407.1 M310.9,406.8c0-0.8,0.5-1.2,1.2-1.2h0.3v-0.8c-0.2,0-0.2,0-0.2,0c-0.6,0-1.1,0.3-1.4,0.8
			v-0.8h-0.6v4.6h0.6v-2.6 M314.2,406.2c0-0.3,0-0.8,0.9-0.8c0.8,0,1.1,0.3,1.1,0.6c0,0.5-0.2,0.6-0.3,0.6l-1.4,0.2
			c-1.2,0.2-1.2,0.9-1.2,1.4c0,0.8,0.5,1.4,1.4,1.4s1.2-0.5,1.6-0.9c0,0.5,0.3,0.9,0.8,0.9c0.3,0,0.3-0.2,0.5-0.2v-0.6
			c-0.2,0-0.2,0-0.2,0c-0.3,0-0.3-0.2-0.3-0.2v-2.8c0-1.1-1.4-1.1-1.7-1.1c-1.1,0-1.9,0.3-1.9,1.4L314.2,406.2 M316.2,407.8
			c0,0.8-0.6,1.2-1.4,1.2c-0.6,0-0.9-0.5-0.9-0.9c0-0.5,0.8-0.8,1.1-0.8c0.9,0,1.1-0.2,1.2-0.2L316.2,407.8 M319.6,403.3h-0.9v6.2
			h0.9V403.3 M321.9,404.8h-0.8v4.6h0.8V404.8 M321.9,404v-0.8h-0.8v0.8H321.9 M326.9,406.2c0-0.3,0-1.4-1.7-1.4
			c-0.9,0-1.7,0.3-1.7,1.4c0,0.6,0.5,0.9,1.1,1.1l0.8,0.3c0.6,0,0.9,0.2,0.9,0.6c0,0.5-0.5,0.6-0.9,0.6c-1.1,0-1.2-0.6-1.2-0.9h-0.8
			c0,0.6,0.2,1.7,2,1.7c0.9,0,1.9-0.6,1.9-1.5c0-0.8-0.5-0.9-1.4-1.2l-0.6-0.2c-0.8-0.2-0.9-0.3-0.9-0.8s0.6-0.5,0.9-0.5
			c0.9,0,1.1,0.5,1.1,0.8H326.9"/>
		<path class="st15" d="M187,108.6h-58.8"/>
		<path class="st16" d="M79.9,107.7l-1.2-3.6h-0.8l1.6,4.5h0.9l1.7-4.5h-0.8L79.9,107.7 M83.6,107.7h-0.9v0.9h0.9V107.7 M88.1,104.1
			h-0.8v5.1c0,0.5-0.2,0.5-0.6,0.5h-0.2v0.8c0.2,0,0.2,0,0.5,0c1.1,0,1.1-0.8,1.1-1.2V104.1 M88.1,102.4h-0.8v0.8h0.8V102.4
			 M93.3,108.6v-4.5h-0.6v2.5c0,0.6-0.3,1.4-1.4,1.4c-0.5,0-0.8-0.2-0.8-0.9v-2.9h-0.8v3.3c0,0.9,0.8,1.4,1.6,1.4
			c0.6,0,1.1-0.3,1.4-0.8v0.6L93.3,108.6 M95.7,106.3c0-0.6,0-1.7,1.1-1.7s1.4,1.2,1.4,2c0,1.1-0.8,1.4-1.4,1.4
			C96,108,95.7,107.2,95.7,106.3 M98.8,104.1h-0.6v0.6c-0.3-0.3-0.6-0.8-1.4-0.8c-1.2,0-1.9,0.9-1.9,2.2c0,1.1,0.5,2.6,1.9,2.6
			c0.6,0,1.1-0.3,1.2-0.6c0,0.6,0.2,1.7-1.2,1.7c-0.2,0-0.9,0-1.1-0.6h-0.8c0.3,1.2,1.2,1.2,1.9,1.2c2,0,2-1.6,2-2.3L98.8,104.1
			 M104,108.6v-4.5h-0.8v2.5c0,0.6-0.3,1.4-1.2,1.4c-0.5,0-0.8-0.2-0.8-0.9v-2.9h-0.8v3.3c0,0.9,0.8,1.4,1.4,1.4
			c0.8,0,1.1-0.3,1.6-0.8v0.6L104,108.6 M106.5,106c0-0.8,0.5-1.2,1.2-1.2h0.3V104h-0.2c-0.6,0-1.1,0.3-1.4,0.8v-0.6h-0.6v4.5h0.6
			L106.5,106 M109.8,105.4c0-0.3,0.2-0.8,1.1-0.8c0.6,0,0.9,0.3,0.9,0.6c0,0.5-0.2,0.6-0.3,0.6l-1.2,0.2c-1.4,0.2-1.4,1.1-1.4,1.4
			c0,0.8,0.6,1.4,1.4,1.4c0.9,0,1.4-0.5,1.7-0.8c0,0.3,0.2,0.8,0.8,0.8c0.2,0,0.3-0.2,0.3-0.2V108c0,0,0,0-0.2,0s-0.3,0-0.3-0.2
			v-2.6c0-1.1-1.2-1.2-1.7-1.2c-1.1,0-1.7,0.3-1.7,1.4L109.8,105.4 M111.8,107.1c0,0.6-0.6,1.1-1.4,1.1c-0.5,0-0.8-0.5-0.8-0.9
			c0-0.5,0.6-0.6,0.9-0.6c1.1-0.2,1.1-0.3,1.2-0.3v0.7 M115.2,106c0-0.8,0.5-1.2,1.2-1.2h0.3V104c-0.2,0-0.2,0-0.2,0
			c-0.6,0-1.1,0.3-1.4,0.8v-0.6h-0.6v4.5h0.6L115.2,106 M118.8,104.1H118v4.5h0.8V104.1 M118.8,103.2v-0.8H118v0.8H118.8
			 M123.7,105.4c0-0.2-0.2-1.4-1.7-1.4c-0.9,0-1.7,0.3-1.7,1.4c0,0.6,0.3,0.9,0.9,1.1l0.9,0.3c0.6,0,0.9,0.3,0.9,0.6
			c0,0.5-0.5,0.6-1.1,0.6c-1.1,0-1.1-0.5-1.1-0.9h-0.9c0,0.6,0.3,1.7,2,1.7c1.1,0,1.9-0.6,1.9-1.6c0-0.6-0.5-0.9-1.2-1.2l-0.8-0.2
			c-0.6-0.2-0.9-0.2-0.9-0.6c0-0.6,0.8-0.6,0.9-0.6c0.9,0,1.1,0.5,1.1,0.8L123.7,105.4 M96.1,114h-0.8v4.7h0.8V114 M96.1,113.3v-0.8
			h-0.8v0.8H96.1 M101.6,115.4c0-1.1-0.9-1.4-1.6-1.4c-0.9,0-1.2,0.5-1.4,0.8V114h-0.8v4.7h0.8v-2.5c0-1.2,0.8-1.6,1.1-1.6
			c0.8,0,1.1,0.3,1.1,1.2v2.8h0.8L101.6,115.4 M104.8,114.8V114H104v-1.2h-0.6v1.2h-0.8v0.8h0.8v2.9c0,0.5,0.2,1.1,0.9,1.1
			c0,0,0.2-0.2,0.5-0.2v-0.8h-0.3c-0.2,0-0.5,0-0.5-0.2v-2.9L104.8,114.8 M109.2,117.1c0,0.3-0.5,0.9-1.1,0.9
			c-0.9,0-1.4-0.6-1.4-1.4h3.4c0-1.7-0.8-2.6-2-2.6c-1.6,0-2.2,1.1-2.2,2.5c0,1.2,0.6,2.3,2,2.3c0.8,0,0.9-0.3,1.2-0.5
			c0.6-0.3,0.8-0.9,0.9-1.2L109.2,117.1 M106.7,116.1c0-0.8,0.6-1.4,1.2-1.4c0.9,0,1.2,0.6,1.2,1.4H106.7 M112.3,116.1
			c0-0.8,0.5-1.2,1.2-1.2h0.3v-0.8c-0.2,0-0.2,0-0.2,0c-0.6,0-1.1,0.3-1.4,0.8v-0.8h-0.6v4.7h0.6L112.3,116.1 M118.8,115.4
			c0-1.1-0.9-1.4-1.6-1.4c-0.8,0-1.2,0.5-1.4,0.8V114h-0.7v4.7h0.8v-2.5c0-1.2,0.8-1.6,1.1-1.6c0.9,0,1.1,0.3,1.1,1.2v2.8h0.8
			L118.8,115.4 M121.1,115.4c0.2-0.3,0.2-0.8,1.1-0.8c0.6,0,0.9,0.3,0.9,0.6c0,0.5-0.2,0.6-0.3,0.6l-1.4,0.2
			c-1.1,0.2-1.2,0.9-1.2,1.4c0,0.8,0.6,1.4,1.4,1.4c0.9,0,1.2-0.5,1.7-0.9c0,0.5,0.2,0.9,0.6,0.9c0.3,0,0.3-0.2,0.5-0.2V118h-0.2
			c-0.3,0-0.3-0.2-0.3-0.2v-2.6c0-1.2-1.2-1.2-1.6-1.2c-1.1,0-2,0.3-2,1.4L121.1,115.4 M123.1,117c0,0.8-0.6,1.2-1.4,1.2
			c-0.5,0-0.8-0.5-0.8-0.9c0-0.5,0.6-0.6,0.9-0.6c0.9-0.2,1.2-0.3,1.2-0.3v0.6"/>
		<path class="st16" d="M9,137.5l-1.2-3.7H7l1.6,4.7h0.9l1.7-4.7h-0.8L9,137.5 M12.7,137.5h-0.9v0.9h0.9V137.5 M20,135.3
			c0-0.8-0.5-1.6-1.7-1.6c-1.6,0-2.2,1.1-2.2,2.5c0,1.2,0.8,2.3,2,2.3c1.4,0,1.9-1.1,1.9-1.9h-0.6c-0.3,0.8-0.6,1.1-1.2,1.1
			c-1.1,0-1.1-1.1-1.1-1.7c0-0.8,0.2-1.7,1.1-1.7c0.8,0,1.1,0.3,1.2,0.9L20,135.3 M22,135.1c0-0.3,0-0.9,0.9-0.9
			c0.8,0,1.1,0.3,1.1,0.8s-0.2,0.6-0.3,0.6h-1.4c-1.2,0.3-1.2,1.1-1.2,1.6c0,0.8,0.5,1.4,1.4,1.4s1.2-0.5,1.6-0.9
			c0,0.5,0.3,0.9,0.8,0.9c0.3,0,0.3-0.2,0.5-0.2v-0.6h-0.3c-0.3,0-0.3-0.2-0.3-0.2v-2.8c0-1.1-1.4-1.1-1.6-1.1c-1.2,0-2,0.3-2,1.4
			H22 M24,136.7c0,0.6-0.6,1.2-1.4,1.2c-0.6,0-0.8-0.5-0.8-0.9c0-0.5,0.6-0.8,0.9-0.8c0.9,0,1.1-0.2,1.2-0.2v0.7 M28.1,137.5
			l-1.2-3.7H26l1.9,4.7h0.8l1.7-4.7h-0.9L28.1,137.5 M31.9,135.1c0-0.3,0-0.9,0.9-0.9c0.6,0,1.1,0.3,1.1,0.8s-0.3,0.6-0.5,0.6h-1.2
			c-1.2,0.3-1.2,1.1-1.2,1.6c0,0.8,0.5,1.4,1.4,1.4c0.8,0,1.2-0.5,1.6-0.9c0,0.5,0.2,0.9,0.8,0.9c0.2,0,0.3-0.2,0.5-0.2v-0.6
			c-0.2,0-0.2,0-0.3,0c-0.2,0-0.3-0.2-0.3-0.2v-2.8c0-1.1-1.2-1.1-1.6-1.1c-1.1,0-1.9,0.3-1.9,1.4H31.9 M33.9,136.7
			c0,0.6-0.8,1.2-1.4,1.2s-0.9-0.5-0.9-0.9c0-0.5,0.8-0.8,1.1-0.8c0.9,0,1.1-0.2,1.2-0.2L33.9,136.7 M42.2,135.1
			c0-0.3,0-1.4-1.6-1.4c-0.9,0-1.9,0.3-1.9,1.4c0,0.6,0.5,0.9,1.1,1.1l0.9,0.3c0.6,0,0.9,0.2,0.9,0.5c0,0.6-0.6,0.8-1.1,0.8
			c-1.1,0-1.2-0.6-1.2-0.9h-0.8c0,0.6,0.2,1.7,2,1.7c1.1,0,1.7-0.6,1.7-1.6c0-0.8-0.3-1.1-1.2-1.2l-0.8-0.2
			c-0.6-0.3-0.8-0.3-0.8-0.8s0.6-0.6,0.9-0.6c0.9,0,0.9,0.6,0.9,0.9H42.2 M47.4,138.4v-4.7h-0.8v2.5c0,0.8-0.2,1.6-1.2,1.6
			c-0.5,0-0.8-0.2-0.8-1.1v-3h-0.8v3.3c0,1.1,0.8,1.6,1.6,1.6c0.6,0,1.1-0.3,1.2-0.9v0.8L47.4,138.4 M49.8,136.2
			c0-0.6,0.2-1.9,1.2-1.9c1.2,0,1.2,1.1,1.2,1.7c0,0.9-0.3,1.7-1.2,1.7C50.5,137.8,49.8,137.5,49.8,136.2 M49,140.1h0.8v-2.2H50
			c0.2,0.3,0.5,0.6,1.1,0.6c1.5,0,2.2-1.6,2.2-2.6c0-1.2-0.8-2.2-2-2.2c-0.8,0-1.1,0.5-1.4,0.6v-0.6h-0.8L49,140.1 M57.7,136.8
			c-0.2,0.3-0.6,0.9-1.2,0.9c-0.9,0-1.2-0.6-1.2-1.6h3.3c0-1.6-0.8-2.5-2-2.5c-1.6,0-2.2,1.1-2.2,2.5c0,1.2,0.8,2.3,2,2.3
			c0.8,0,1.1-0.3,1.2-0.5c0.6-0.3,0.8-0.9,0.9-1.2L57.7,136.8 M55.2,135.6c0-0.6,0.5-1.2,1.1-1.2c0.9,0,1.4,0.6,1.4,1.2H55.2
			 M60.6,135.6c0-0.6,0.5-1.2,1.2-1.2h0.3v-0.7c-0.2,0-0.2,0-0.2,0c-0.6,0-1.1,0.3-1.4,0.8v-0.8h-0.6v4.7h0.6L60.6,135.6 M64,133.7
			h-0.6v4.7H64V133.7 M64,133v-0.9h-0.6v0.9H64 M65.4,136.1c0,1.1,0.8,2.5,2.3,2.5c1.4,0,2-1.4,2-2.5c0-1.2-0.6-2.3-2-2.3
			C66.2,133.7,65.4,134.8,65.4,136.1 M66.4,136.1c0-0.8,0.3-1.9,1.4-1.9s1.2,1.1,1.2,1.9c0,0.6-0.2,1.7-1.2,1.7
			C66.7,137.8,66.4,136.7,66.4,136.1 M72.1,135.6c0-0.6,0.5-1.2,1.1-1.2h0.3v-0.7h-0.2c-0.6,0-1.1,0.3-1.4,0.8v-0.8h-0.6v4.7h0.8
			L72.1,135.6"/>
		<path class="st15" d="M124.7,168H79"/>
		<path class="st16" d="M25.7,167.2l-1.2-3.7h-0.8l1.7,4.5h0.8l1.9-4.5h-1L25.7,167.2 M29.5,167.1h-0.9v0.9h0.9V167.1 M36.9,165.1
			c-0.2-0.9-0.6-1.7-1.9-1.7c-1.4,0-2,1.1-2,2.6c0,1.2,0.6,2.3,1.9,2.3c1.4,0,1.9-1.2,2-1.9h-0.8c-0.2,0.6-0.6,1.1-1.2,1.1
			c-0.9,0-1.1-1.1-1.1-1.9c0-0.6,0.3-1.6,1.2-1.6c0.6,0,0.9,0.3,1.1,0.9L36.9,165.1 M41.2,166.6c-0.2,0.3-0.5,0.9-1.2,0.9
			c-0.8,0-1.2-0.6-1.2-1.6h3.3c0-1.6-0.6-2.6-2-2.6s-2.2,1.1-2.2,2.6c0,1.2,0.8,2.3,2,2.3c0.8,0,1.1-0.3,1.2-0.5
			c0.6-0.3,0.8-0.9,0.8-1.2L41.2,166.6 M38.8,165.4c0-0.6,0.5-1.2,1.2-1.2c0.8,0,1.2,0.6,1.2,1.2H38.8 M44.2,166
			c0-0.8,0-1.9,1.2-1.9c1.1,0,1.1,1.1,1.1,1.6c0,1.1-0.3,1.9-1.1,1.9C45,167.5,44.2,167.2,44.2,166 M43.3,169.9h0.9v-2.3
			c0.2,0.3,0.6,0.8,1.2,0.8c1.6,0,2-1.6,2-2.6c0-1.2-0.8-2.3-2-2.3c-0.8,0-1.1,0.6-1.2,0.8v-0.6h-0.9V169.9 M52.4,164.9
			c0-1.2-0.8-1.6-1.6-1.6c-0.8,0-1.1,0.5-1.4,0.8v-2.3h-0.6v6.2h0.6v-2.5c0-1.1,0.6-1.4,1.4-1.4c0.6,0,0.9,0.3,0.9,0.9v2.9h0.6
			L52.4,164.9 M54.9,164.7c0-0.3,0-0.8,0.9-0.8c0.8,0,1.1,0.3,1.1,0.8s-0.2,0.5-0.3,0.5l-1.4,0.2c-1.1,0.3-1.2,1.1-1.2,1.6
			c0,0.6,0.5,1.4,1.4,1.4s1.2-0.5,1.7-0.9c0,0.5,0,0.8,0.6,0.8c0.3,0,0.3,0,0.5-0.2v-0.5H58c-0.3,0-0.3-0.2-0.3-0.2v-2.8
			c0-1.1-1.4-1.2-1.7-1.2c-1.1,0-1.9,0.5-1.9,1.4L54.9,164.7 M56.9,166.5c0,0.6-0.6,1.1-1.4,1.1c-0.6,0-0.8-0.3-0.8-0.8
			c0-0.6,0.6-0.8,0.9-0.8c0.9,0,1.1-0.2,1.2-0.3v0.8 M60.2,161.8h-0.6v6.2h0.6V161.8 M62.8,163.5h-0.9v4.5h0.9V163.5 M62.8,162.7
			v-0.9h-0.9v0.9H62.8 M67.9,165.1c0-0.9-0.5-1.7-1.7-1.7c-1.4,0-2.2,1.1-2.2,2.6c0,1.2,0.8,2.3,2,2.3c1.4,0,1.9-1.2,1.9-1.9h-0.8
			c0,0.6-0.5,1.1-1.1,1.1c-1.1,0-1.1-1.1-1.1-1.9c0-0.6,0.3-1.6,1.2-1.6c0.6,0,0.9,0.3,0.9,0.9L67.9,165.1 M69.9,164.7
			c0-0.3,0.2-0.8,1.1-0.8c0.6,0,0.9,0.3,0.9,0.8s-0.2,0.5-0.3,0.5l-1.4,0.2c-1.1,0.3-1.2,1.1-1.2,1.6c0,0.6,0.6,1.4,1.4,1.4
			c0.9,0,1.2-0.5,1.7-0.9c0,0.5,0.2,0.8,0.6,0.8c0.3,0,0.3,0,0.5-0.2v-0.5H73c-0.3,0-0.3-0.2-0.3-0.2v-2.8c0-1.1-1.4-1.2-1.7-1.2
			c-1.1,0-1.9,0.5-1.9,1.4L69.9,164.7 M71.9,166.5c0,0.6-0.6,1.1-1.4,1.1c-0.5,0-0.8-0.3-0.8-0.8c0-0.6,0.6-0.8,0.9-0.8
			c0.9,0,1.1-0.2,1.2-0.3L71.9,166.5"/>
		<path class="st16" d="M14.1,214.1l-1.2-3.7H12l1.7,4.5h0.9l1.7-4.5h-0.9L14.1,214.1 M17.8,213.9h-0.9v0.9h0.9V213.9 M25.1,211.9
			c0-0.9-0.6-1.7-1.7-1.7c-1.4,0-2.2,1.1-2.2,2.5s0.8,2.5,2,2.5s1.9-1.2,1.9-1.9h-0.8c0,0.6-0.5,1.1-1.1,1.1c-0.9,0-1.2-1.1-1.2-1.9
			c0-0.6,0.3-1.6,1.4-1.6c0.6,0,0.9,0.3,0.9,0.9L25.1,211.9 M27.1,211.7c0-0.5,0.2-0.9,1.1-0.9c0.6,0,0.9,0.3,0.9,0.8
			s-0.2,0.5-0.3,0.5l-1.2,0.2c-1.2,0.2-1.4,1.1-1.4,1.6c0,0.6,0.6,1.4,1.4,1.4c0.9,0,1.2-0.5,1.7-0.9c0,0.5,0,0.8,0.8,0.8
			c0.2,0,0.2-0.2,0.5-0.2v-0.5c-0.2,0-0.3,0-0.3,0c-0.2,0-0.3-0.2-0.3-0.3v-2.6c0-1.1-1.2-1.2-1.7-1.2c-1.1,0-1.9,0.5-1.9,1.6
			L27.1,211.7 M29.1,213.3c0,0.6-0.6,1.1-1.4,1.1c-0.5,0-0.8-0.3-0.8-0.9c0-0.5,0.6-0.6,1.1-0.6c0.8-0.2,1.1-0.2,1.1-0.3L29.1,213.3
			 M33.2,214.1l-1.1-3.7h-0.9l1.5,4.5h0.9l1.7-4.5h-0.8L33.2,214.1 M36.9,211.7c0.2-0.5,0.2-0.9,1.1-0.9c0.8,0,1.1,0.3,1.1,0.8
			s-0.2,0.5-0.3,0.5l-1.4,0.2c-1.2,0.2-1.2,1.1-1.2,1.6c0,0.6,0.6,1.4,1.4,1.4s1.2-0.5,1.7-0.9c0,0.5,0,0.8,0.6,0.8
			c0.3,0,0.3-0.2,0.5-0.2v-0.5h-0.2c-0.3,0-0.3-0.2-0.3-0.3v-2.6c0-1.1-1.4-1.2-1.7-1.2c-1.1,0-1.9,0.5-1.9,1.6L36.9,211.7
			 M39.1,213.3c0,0.6-0.8,1.1-1.4,1.1s-0.8-0.3-0.8-0.9c0-0.5,0.6-0.6,0.9-0.6c0.9-0.2,1.1-0.2,1.2-0.3L39.1,213.3 M44.8,210.3H44
			v4.5h0.8V210.3 M44.8,209.6v-0.9H44v0.9H44.8 M50.1,211.7c0-1.2-0.8-1.6-1.4-1.6c-0.8,0-1.2,0.5-1.4,0.8v-0.6h-0.8v4.5h0.8v-2.5
			c0-1.1,0.8-1.4,1.1-1.4c0.9,0,1.1,0.3,1.1,1.1v2.8h0.6L50.1,211.7 M53.6,211v-0.6h-0.8v-0.7c0-0.3,0-0.5,0.3-0.5
			c0.2,0,0.3,0,0.5,0v-0.8c-0.2,0-0.3,0-0.5,0c-0.8,0-1.2,0.3-1.2,1.1v0.8h-0.5v0.6h0.5v3.9h0.9v-3.9L53.6,211 M57.7,213.4
			c-0.2,0.3-0.6,0.9-1.2,0.9c-0.9,0-1.2-0.6-1.2-1.6h3.3c0-1.6-0.8-2.6-2-2.6c-1.6,0-2.2,1.1-2.2,2.5s0.8,2.5,2,2.5
			c0.8,0,1.1-0.3,1.2-0.5c0.6-0.3,0.8-0.9,0.9-1.2L57.7,213.4 M55.2,212.2c0-0.6,0.5-1.2,1.1-1.2c0.9,0,1.4,0.6,1.4,1.2H55.2
			 M60.6,212.2c0-0.6,0.5-1.2,1.2-1.2h0.3v-0.8c-0.2,0-0.2,0-0.2,0c-0.6,0-1.1,0.3-1.4,0.8v-0.6h-0.6v4.5h0.6L60.6,212.2 M64,210.3
			h-0.6v4.5H64V210.3 M64,209.6v-0.9h-0.6v0.9H64 M65.4,212.5c0,1.2,0.8,2.6,2.3,2.6c1.4,0,2-1.4,2-2.6c0-1.1-0.6-2.3-2-2.3
			C66.2,210.2,65.4,211.4,65.4,212.5 M66.4,212.5c0-0.6,0.3-1.7,1.4-1.7s1.2,1.1,1.2,1.7c0,0.8-0.2,1.9-1.2,1.9
			C66.7,214.4,66.4,213.3,66.4,212.5 M72.1,212.2c0-0.6,0.5-1.2,1.1-1.2h0.3v-0.8h-0.2c-0.6,0-1.1,0.3-1.4,0.8v-0.6h-0.6v4.5h0.8
			L72.1,212.2"/>
		<path class="st16" d="M27.7,408.5l-1.2-3.7h-0.9l1.7,4.6h0.8l1.7-4.6H29L27.7,408.5 M31.3,408.5h-0.8v0.9h0.8V408.5 M36.9,405.6
			v-0.8h-0.8v-0.5c0-0.5,0.2-0.6,0.3-0.6c0.3,0,0.3,0,0.5,0v-0.6c-0.2,0-0.3,0-0.5,0c-0.6,0-1.1,0.3-1.1,0.9v0.8h-0.8v0.8h0.8v3.9
			h0.8v-3.9L36.9,405.6 M40.8,407.9c0,0.3-0.5,0.9-1.1,0.9c-0.9,0-1.4-0.6-1.4-1.6h3.4c0-1.5-0.6-2.5-2-2.5s-2.2,1.1-2.2,2.5
			c0,1.2,0.8,2.3,2,2.3c0.8,0,1.1-0.3,1.2-0.5c0.6-0.3,0.8-0.9,0.9-1.2h-0.8 M38.3,406.8c0-0.8,0.6-1.4,1.4-1.4
			c0.9,0,1.1,0.6,1.1,1.4H38.3 M43.1,409.5h0.8v-2.6c0-1.1,0.8-1.4,1.2-1.4c0.5,0,0.6,0.5,0.6,0.8v3.3h0.8v-2.9
			c0-0.8,0.5-1.2,1.1-1.2s0.8,0.5,0.8,1.1v2.9h0.9v-3.3c0-1.2-0.9-1.4-1.4-1.4c-0.8,0-1.2,0.3-1.4,0.6c-0.3-0.2-0.5-0.6-1.2-0.6
			s-1.2,0.5-1.4,0.8v-0.8h-0.8V409.5 M50.5,407.1c0,1.1,0.6,2.5,2.2,2.5c1.4,0,2-1.4,2-2.5c0-1.2-0.6-2.3-2-2.3
			C51.2,404.8,50.5,405.9,50.5,407.1 M51.3,407.1c0-0.6,0.2-1.7,1.4-1.7c1.1,0,1.4,1.1,1.4,1.7s-0.3,1.7-1.4,1.7
			C51.5,408.8,51.3,407.8,51.3,407.1 M57.1,406.8c0-0.8,0.5-1.2,1.1-1.2h0.3v-0.8c0,0,0,0-0.2,0c-0.6,0-0.9,0.3-1.2,0.8v-0.8h-0.8
			v4.6h0.8L57.1,406.8 M60.2,406.2c0-0.3,0.2-0.8,1.1-0.8c0.6,0,1.1,0.3,1.1,0.6c0,0.5-0.3,0.6-0.5,0.6l-1.2,0.2
			c-1.4,0.2-1.4,0.9-1.4,1.4c0,0.8,0.6,1.4,1.4,1.4c0.9,0,1.4-0.5,1.7-0.9c0,0.5,0.2,0.9,0.8,0.9c0.2,0,0.3-0.2,0.5-0.2v-0.6
			c-0.2,0-0.2,0-0.3,0c-0.2,0-0.3-0.2-0.3-0.2v-2.8c0-1.1-1.2-1.1-1.6-1.1c-1.2,0-1.9,0.3-1.9,1.4L60.2,406.2 M62.3,407.8
			c0,0.8-0.8,1.2-1.4,1.2s-0.9-0.5-0.9-0.9c0-0.5,0.6-0.8,0.9-0.8c1.1,0,1.1-0.2,1.4-0.2V407.8 M65.6,403.3h-0.8v6.2h0.8V403.3
			 M67.9,404.8h-0.6v4.6h0.6V404.8 M67.9,404v-0.8h-0.6v0.8H67.9 M73,406.2c0-0.3-0.2-1.4-1.7-1.4c-0.9,0-1.7,0.3-1.7,1.4
			c0,0.6,0.3,0.9,0.9,1.1l0.9,0.3c0.6,0,0.9,0.2,0.9,0.6c0,0.5-0.5,0.6-1.1,0.6c-1.1,0-1.1-0.6-1.1-0.9h-0.9c0,0.6,0.3,1.7,2,1.7
			c1.1,0,1.9-0.6,1.9-1.5c0-0.8-0.5-0.9-1.2-1.2l-0.8-0.2c-0.6-0.2-0.9-0.3-0.9-0.8s0.8-0.5,0.9-0.5c1.1,0,1.1,0.5,1.1,0.8H73"/>
		<path class="st15" d="M213.5,245.9H78.9"/>
		<path class="st16" d="M0.8,242v-0.6H0v-1.2h-0.8v1.2h-0.6v0.6h0.6v2.9c0,0.6,0.2,1.1,0.9,1.1c0.2,0,0.3,0,0.6-0.2v-0.6H0.4
			c-0.2,0-0.5,0-0.5-0.3V242H0.8 M2.8,243.2c0-0.6,0.5-1.2,1.2-1.2h0.3v-0.8c-0.2,0-0.2,0-0.2,0c-0.6,0-1.1,0.5-1.4,0.9v-0.8H2.1
			v4.5h0.6L2.8,243.2 M9.3,245.9v-4.5H8.4v2.5c0,0.6-0.3,1.5-1.2,1.5c-0.5,0-0.8-0.3-0.8-0.9v-3.1H5.6v3.3c0,1.1,0.8,1.4,1.4,1.4
			c0.8,0,1.1-0.2,1.6-0.8v0.6H9.3 M14.6,242.8c0-1.2-0.9-1.6-1.5-1.6c-0.8,0-1.2,0.5-1.4,0.8v-0.6h-0.8v4.5h0.8v-2.5
			c0-1.2,0.8-1.6,1.2-1.6c0.8,0,0.9,0.5,0.9,1.2v2.8h0.8V242.8 M19.8,242.9c-0.2-0.8-0.5-1.7-1.7-1.7c-1.5,0-2.3,1.1-2.3,2.5
			s0.9,2.3,2.2,2.3c1.4,0,1.7-1.1,1.9-1.7h-0.8c-0.2,0.6-0.6,1.1-1.1,1.1c-1.1,0-1.2-0.9-1.2-1.9c0-0.8,0.3-1.7,1.2-1.7
			c0.6,0,1.1,0.5,1.1,1.1L19.8,242.9 M24.8,245.9v-4.5H24v2.5c0,0.6-0.3,1.5-1.2,1.5c-0.5,0-0.9-0.3-0.9-0.9v-3.1h-0.8v3.3
			c0,1.1,0.8,1.4,1.6,1.4c0.6,0,1.1-0.2,1.4-0.8v0.6H24.8 M29.8,242.6c0-0.2-0.2-1.4-1.7-1.4c-0.9,0-1.7,0.5-1.7,1.6
			c0,0.5,0.3,0.8,0.9,0.9l0.9,0.3c0.6,0.2,0.9,0.3,0.9,0.6c0,0.5-0.5,0.8-1.1,0.8c-0.9,0-1.2-0.6-1.2-0.9h-0.6
			c0,0.5,0.2,1.6,1.9,1.6c1.1,0,1.9-0.5,1.9-1.6c0-0.6-0.3-0.9-1.2-1.2l-0.8-0.2c-0.6,0-0.8-0.2-0.8-0.6c0-0.6,0.6-0.6,0.9-0.6
			c0.8,0,0.9,0.5,0.9,0.8L29.8,242.6 M37.4,242.9c-0.2-0.8-0.6-1.7-1.9-1.7c-1.4,0-2,1.1-2,2.5s0.6,2.3,2,2.3c1.2,0,1.7-1.1,1.9-1.7
			h-0.8c-0.2,0.6-0.6,1.1-1.1,1.1c-1.1,0-1.2-0.9-1.2-1.9c0-0.8,0.3-1.7,1.2-1.7c0.6,0,0.9,0.5,1.1,1.1L37.4,242.9 M38.3,243.5
			c0,1.2,0.6,2.5,2.2,2.5c1.4,0,2-1.2,2-2.5c0-1.1-0.6-2.3-2-2.3C38.9,241.2,38.3,242.4,38.3,243.5 M39.2,243.5
			c0-0.5,0.2-1.7,1.2-1.7c1.1,0,1.2,1.2,1.2,1.7c0,0.6-0.2,1.9-1.2,1.9S39.2,244.1,39.2,243.5 M47,244.5c0,0.3-0.5,0.9-1.1,0.9
			c-0.9,0-1.4-0.6-1.4-1.5h3.4c0-1.6-0.8-2.6-2-2.6c-1.4,0-2.2,1.1-2.2,2.5s0.8,2.3,2,2.3c0.8,0,0.9-0.2,1.2-0.3
			c0.6-0.3,0.8-1.1,0.9-1.2L47,244.5 M44.5,243.2c0-0.6,0.6-1.4,1.2-1.4c0.9,0,1.2,0.8,1.2,1.4H44.5 M50.1,239.6h-0.8v6.2h0.8V239.6
			 M52.4,241.4h-0.6v4.5h0.6V241.4 M52.4,240.6v-0.9h-0.6v0.9H52.4 M54.9,242.8c0-0.5,0-0.9,0.9-0.9c0.8,0,1.1,0.3,1.1,0.8
			s-0.2,0.5-0.3,0.5l-1.4,0.2c-1.1,0.3-1.2,1.1-1.2,1.4c0,0.9,0.5,1.4,1.4,1.4s1.2-0.5,1.7-0.8c0,0.3,0,0.8,0.6,0.8
			c0.3,0,0.3,0,0.5-0.2v-0.5H58c-0.3,0-0.3-0.2-0.3-0.3v-2.6c0-1.1-1.4-1.2-1.7-1.2c-1.1,0-1.9,0.5-1.9,1.6L54.9,242.8 M56.9,244.3
			c0,0.6-0.6,1.1-1.4,1.1c-0.6,0-0.8-0.3-0.8-0.8c0-0.6,0.6-0.8,0.9-0.8c0.9-0.2,1.1-0.2,1.2-0.3v0.8 M63.1,242.9
			c-0.2-0.8-0.6-1.7-1.7-1.7c-1.5,0-2.2,1.1-2.2,2.5s0.8,2.3,2,2.3s1.7-1.1,1.9-1.7h-0.8c-0.2,0.6-0.5,1.1-1.1,1.1
			c-1.1,0-1.2-0.9-1.2-1.9c0-0.8,0.3-1.7,1.2-1.7c0.6,0,1.1,0.5,1.1,1.1L63.1,242.9 M67.9,245.9v-4.5h-0.6v2.5
			c0,0.6-0.3,1.5-1.2,1.5c-0.6,0-0.8-0.3-0.8-0.9v-3.1h-0.9v3.3c0,1.1,0.9,1.4,1.6,1.4c0.8,0,1.1-0.2,1.4-0.8v0.6H67.9 M73,242.6
			c0-0.2-0.2-1.4-1.7-1.4c-0.9,0-1.7,0.5-1.7,1.6c0,0.5,0.3,0.8,0.9,0.9l0.9,0.3c0.6,0.2,0.9,0.3,0.9,0.6c0,0.5-0.5,0.8-1.1,0.8
			c-1.1,0-1.1-0.6-1.1-0.9h-0.9c0,0.5,0.3,1.6,2,1.6c1.1,0,1.9-0.5,1.9-1.6c0-0.6-0.5-0.9-1.2-1.2l-0.8-0.2c-0.6,0-0.9-0.2-0.9-0.6
			c0-0.6,0.8-0.6,0.9-0.6c1.1,0,1.1,0.5,1.1,0.8L73,242.6"/>
	</g>
</g>
</svg>
